<svg xmlns="http://www.w3.org/2000/svg" viewBox="0 0 512 512"><path d="M256,401.4c-80.2,0-145.4-65.2-145.4-145.4S175.8,110.6,256,110.6,401.4,175.8,401.4,256,336.2,401.4,256,401.4Zm0-272.9A127.5,127.5,0,1,0,383.5,256,127.6,127.6,0,0,0,256,128.5Z"/><path d="M256,369.9A114,114,0,0,1,142.1,256c0-62.8,51.1-114,113.9-114s113.9,51.2,113.9,114A114,114,0,0,1,256,369.9ZM256,160a96,96,0,1,0,96,96A96.2,96.2,0,0,0,256,160Z"/><path d="M190.2,265a9,9,0,0,1-9-9A74.9,74.9,0,0,1,256,181.2a9,9,0,0,1,0,18A56.9,56.9,0,0,0,199.2,256,9.1,9.1,0,0,1,190.2,265Z"/><path d="M256,84.4a42.2,42.2,0,1,1,42.2-42.2A42.2,42.2,0,0,1,256,84.4Zm0-66.5a24.3,24.3,0,1,0,24.3,24.3A24.3,24.3,0,0,0,256,17.9Z"/><path d="M241,129.3a8.9,8.9,0,0,1-8.9-8.2l-1.9-22.5a9,9,0,1,1,17.9-1.5l1.9,22.5a9,9,0,0,1-8.2,9.7Z"/><path d="M271,129.3h-.8a9,9,0,0,1-8.2-9.7l4.3-51A9,9,0,0,1,284.2,70l-4.3,51.1A8.9,8.9,0,0,1,271,129.3Z"/><path d="M407.2,147A42.2,42.2,0,1,1,437,134.7,42.4,42.4,0,0,1,407.2,147Zm0-66.4A24.1,24.1,0,0,0,390,87.7a23.7,23.7,0,0,0-7.1,17.1A24.1,24.1,0,0,0,390,122c9.2,9.1,25.2,9.1,34.3,0a24.1,24.1,0,0,0,7.1-17.2,24.2,24.2,0,0,0-24.2-24.2Z"/><path d="M341.3,158.5a8.7,8.7,0,0,1-5.7-2.1,9,9,0,0,1-1.1-12.7l14.6-17.2A8.9,8.9,0,1,1,362.8,138l-14.6,17.3A9,9,0,0,1,341.3,158.5Z"/><path d="M362.5,179.6a9.2,9.2,0,0,1-6.9-3.2,8.9,8.9,0,0,1,1.1-12.6l39.1-33.1a9,9,0,0,1,12.7,1.1,8.9,8.9,0,0,1-1.1,12.6l-39.1,33.1A9.2,9.2,0,0,1,362.5,179.6Z"/><path d="M469.8,298.2A42.2,42.2,0,1,1,512,256,42.2,42.2,0,0,1,469.8,298.2Zm0-66.5A24.3,24.3,0,1,0,494.1,256,24.3,24.3,0,0,0,469.8,231.7Z"/><path d="M391.6,250a8.9,8.9,0,0,1-8.9-8.2,9,9,0,0,1,8.2-9.7l22.5-1.9a9.1,9.1,0,0,1,9.7,8.2,8.9,8.9,0,0,1-8.2,9.7L392.4,250Z"/><path d="M442.7,284.2H442l-51.1-4.3a9,9,0,0,1,1.5-17.9l51.1,4.3a9,9,0,0,1-.8,17.9Z"/><path d="M407.2,449.4A42.3,42.3,0,1,1,437,437,42.5,42.5,0,0,1,407.2,449.4Zm0-66.5a24.2,24.2,0,0,0-24.3,24.3,23.7,23.7,0,0,0,7.1,17.1c9.2,9.2,25.2,9.2,34.3,0a23.7,23.7,0,0,0,7.1-17.1,24.2,24.2,0,0,0-24.2-24.3Z"/><path d="M379.7,364.9a8.7,8.7,0,0,1-5.7-2.1l-17.3-14.6a8.9,8.9,0,0,1-1.1-12.6,9,9,0,0,1,12.7-1.1l17.2,14.6a8.9,8.9,0,0,1,1.1,12.6A9,9,0,0,1,379.7,364.9Z"/><path d="M374.4,410.6a9,9,0,0,1-6.8-3.2l-33.1-39.1a9,9,0,0,1,1.1-12.7,8.9,8.9,0,0,1,12.6,1.1l33.1,39.1a9,9,0,0,1-6.9,14.8Z"/><path d="M256,512a42.2,42.2,0,1,1,42.2-42.2A42.2,42.2,0,0,1,256,512Zm0-66.5a24.3,24.3,0,1,0,24.3,24.3A24.3,24.3,0,0,0,256,445.5Z"/><path d="M272.8,423.1a8.9,8.9,0,0,1-8.9-8.2L262,392.4a9,9,0,0,1,17.9-1.5l1.9,22.5a9,9,0,0,1-8.2,9.7Z"/><path d="M236.8,451.7H236a8.9,8.9,0,0,1-8.2-9.6l4.3-51.1a9,9,0,0,1,17.9,1.5l-4.3,51A9,9,0,0,1,236.8,451.7Z"/><path d="M104.8,449.4A42.3,42.3,0,1,1,134.7,437,42.1,42.1,0,0,1,104.8,449.4Zm0-66.5a24.3,24.3,0,0,0-17.1,41.4c9.1,9.2,25.1,9.2,34.3,0a23.7,23.7,0,0,0,7.1-17.1,24.2,24.2,0,0,0-24.3-24.3Z"/><path d="M156.1,388.7a9,9,0,0,1-6.9-14.8l14.6-17.2a8.9,8.9,0,0,1,12.6-1.1,9,9,0,0,1,1.1,12.7l-14.6,17.2A9,9,0,0,1,156.1,388.7Z"/><path d="M110.4,383.4a9,9,0,0,1-6.9-3.2,8.9,8.9,0,0,1,1.1-12.6l39.1-33.1a9,9,0,0,1,12.7,1.1,8.9,8.9,0,0,1-1.1,12.6l-39.1,33.1A9.2,9.2,0,0,1,110.4,383.4Z"/><path d="M42.2,298.2A42.2,42.2,0,1,1,84.4,256,42.2,42.2,0,0,1,42.2,298.2Zm0-66.5A24.3,24.3,0,1,0,66.5,256,24.3,24.3,0,0,0,42.2,231.7Z"/><path d="M97.8,281.8a9,9,0,0,1-.7-17.9l22.5-1.9a9,9,0,0,1,1.5,17.9l-22.5,1.9Z"/><path d="M120.4,250h-.8l-51.1-4.3a8.8,8.8,0,0,1-8.1-9.7,9,9,0,0,1,9.6-8.2l51.1,4.3a9,9,0,0,1,8.2,9.7A8.9,8.9,0,0,1,120.4,250Z"/><path d="M104.8,147a42.2,42.2,0,1,1,29.9-12.3A42,42,0,0,1,104.8,147Zm0-66.4A24.3,24.3,0,0,0,87.7,122c9.1,9.1,25.1,9.1,34.3,0a24.1,24.1,0,0,0,7.1-17.2A23.7,23.7,0,0,0,122,87.7,24.1,24.1,0,0,0,104.8,80.6Z"/><path d="M149.5,179.6a9,9,0,0,1-5.8-2.1l-17.2-14.6A8.9,8.9,0,1,1,138,149.2l17.3,14.6a8.9,8.9,0,0,1,1.1,12.6A9.2,9.2,0,0,1,149.5,179.6Z"/><path d="M170.7,158.5a9,9,0,0,1-6.9-3.2l-33.1-39.1a9,9,0,1,1,13.7-11.6l33.1,39.1a9,9,0,0,1-1.1,12.7A8.7,8.7,0,0,1,170.7,158.5Z"/></svg>