<svg xmlns="http://www.w3.org/2000/svg" viewBox="0 0 512 417"><path d="M254,387.3c-19.7,0-35.7-19.5-35.7-43.4s16-43.3,35.7-43.3,35.7,19.4,35.7,43.3S273.7,387.3,254,387.3Zm0-72.3c-11.7,0-21.2,13-21.2,28.9s9.5,28.9,21.2,28.9,21.3-12.9,21.3-28.9S265.7,315,254,315Z"/><path d="M413.9,417c-18.9,0-36.8-9-49.1-24.7-10.5-13.3-16.3-30.5-16.3-48.4a81.6,81.6,0,0,1,3-22H316.4a81.6,81.6,0,0,1,3,22c0,17.9-5.7,35.1-16.2,48.4C290.8,408,272.9,417,254,417s-36.8-9-49.1-24.7c-10.5-13.3-16.3-30.5-16.3-48.4a81.6,81.6,0,0,1,3-22h-35a85.7,85.7,0,0,1,2.9,22c0,17.9-5.7,35.1-16.2,48.4C130.9,408,113,417,94.1,417S57.3,408,45,392.3C34.5,379,28.7,361.8,28.7,343.9a85.8,85.8,0,0,1,3-22H7.2a7.2,7.2,0,1,1,0-14.4H41.9a7.2,7.2,0,0,1,6.6,10.1,66.8,66.8,0,0,0-5.3,26.3,64.4,64.4,0,0,0,13.1,39.5c9.6,12.2,23.4,19.1,37.8,19.1s28.2-6.9,37.8-19.1a63.9,63.9,0,0,0,13.2-39.5,66.9,66.9,0,0,0-5.4-26.3,7.4,7.4,0,0,1,.6-6.8,7.2,7.2,0,0,1,6.1-3.3h55.4a7,7,0,0,1,6,3.3,6.9,6.9,0,0,1,.6,6.8,66.8,66.8,0,0,0-5.3,26.3c0,14.7,4.6,28.7,13.1,39.5s23.4,19.1,37.8,19.1,28.2-6.9,37.8-19.1A63.9,63.9,0,0,0,305,343.9a66.9,66.9,0,0,0-5.4-26.3,7.2,7.2,0,0,1,.6-6.8,7,7,0,0,1,6-3.3h55.5a7,7,0,0,1,6,3.3,7.2,7.2,0,0,1,.6,6.8,66.9,66.9,0,0,0-5.4,26.3,63.9,63.9,0,0,0,13.2,39.5c9.6,12.2,23.4,19.1,37.8,19.1s28.2-6.9,37.8-19.1a63.9,63.9,0,0,0,13.2-39.5,66.9,66.9,0,0,0-5.4-26.3,7.2,7.2,0,0,1,.6-6.8,7,7,0,0,1,6-3.3h38.7a7.2,7.2,0,0,1,0,14.4H476.3a81.6,81.6,0,0,1,3,22c0,17.9-5.8,35.1-16.3,48.4C450.7,408,432.8,417,413.9,417Z"/><path d="M254,387.3c-19.7,0-35.7-19.5-35.7-43.4s16-43.3,35.7-43.3,35.7,19.4,35.7,43.3S273.7,387.3,254,387.3Zm0-72.3c-11.7,0-21.2,13-21.2,28.9s9.5,28.9,21.2,28.9,21.3-12.9,21.3-28.9S265.7,315,254,315Z"/><path d="M232,326.3a7.3,7.3,0,0,1-7.2-6.5C215,225.4,256.2,68.4,308,2.8a7.2,7.2,0,0,1,11.4,8.9c-24.2,30.6-47.1,83.6-62.9,145.4-15.2,59.4-21.6,119.7-17.3,161.2a7.2,7.2,0,0,1-6.4,7.9Z"/><path d="M275.8,327.9a7.2,7.2,0,0,1-7-5.5c-22.5-91.6-3.7-246.6,38.7-318.8a7.2,7.2,0,1,1,12.4,7.3C279,80.6,261,230.2,282.8,318.9a7.2,7.2,0,0,1-5.3,8.8Z"/><path d="M94.1,387.3c-19.7,0-35.7-19.5-35.7-43.4s16-43.3,35.7-43.3,35.7,19.4,35.7,43.3S113.8,387.3,94.1,387.3Zm0-72.3c-11.7,0-21.2,13-21.2,28.9s9.5,28.9,21.2,28.9,21.3-12.9,21.3-28.9S105.9,315,94.1,315Z"/><path d="M72.1,326.3a7.2,7.2,0,0,1-7.1-6.5c-9.9-94.4,31.3-251.4,83.1-317a7.2,7.2,0,0,1,11.4,8.9c-24.2,30.6-47.1,83.6-62.9,145.4C81.5,216.5,75,276.8,79.3,318.3a7.1,7.1,0,0,1-6.4,7.9Z"/><path d="M115.9,327.9a7.2,7.2,0,0,1-7-5.5C86.4,230.8,105.2,75.8,147.6,3.6A7.3,7.3,0,0,1,157.5,1a7.2,7.2,0,0,1,2.5,9.9c-40.8,69.7-58.9,219.3-37.1,308a7.2,7.2,0,0,1-5.3,8.8Z"/><path d="M413.9,387.3c-19.7,0-35.7-19.5-35.7-43.4s16-43.3,35.7-43.3,35.7,19.4,35.7,43.3S433.6,387.3,413.9,387.3Zm0-72.3c-11.7,0-21.3,13-21.3,28.9s9.6,28.9,21.3,28.9,21.3-12.9,21.3-28.9S425.6,315,413.9,315Z"/><path d="M391.9,326.3a7.3,7.3,0,0,1-7.2-6.5c-9.9-94.4,31.4-251.4,83.2-317A7.1,7.1,0,0,1,478,1.6a7.1,7.1,0,0,1,1.2,10.1C455,42.3,432.1,95.3,416.4,157.1c-15.2,59.4-21.7,119.7-17.3,161.2a7.2,7.2,0,0,1-6.5,7.9Z"/><path d="M435.7,327.9a7.2,7.2,0,0,1-7-5.5c-22.6-91.6-3.8-246.6,38.6-318.8A7.3,7.3,0,0,1,477.2,1a7.2,7.2,0,0,1,2.6,9.9c-40.9,69.7-58.9,219.3-37.1,308a7.2,7.2,0,0,1-5.3,8.8Z"/></svg>