<svg xmlns="http://www.w3.org/2000/svg" viewBox="0 0 512 277"><path d="M76.2,276.5a60.2,60.2,0,0,1-52.7-89.1A60.2,60.2,0,0,1,92.6,88.9c20,12.7,44.5,16.9,68.9,11.8L327.2,65.9c24.1-5.1,45.4-19.2,58.4-38.6A60.2,60.2,0,0,1,488.5,89.6a60.2,60.2,0,0,1-69.1,98.5c-19.7-12.5-44.8-16.8-69-11.8L184.7,211.1c-24.4,5.2-45.1,18.9-58.3,38.6a60.1,60.1,0,0,1-45.2,26.6ZM48,108.6a31.1,31.1,0,0,0-9.1,60.8,16.4,16.4,0,0,1,5.9,28.2,31.1,31.1,0,1,0,46.1,40.8c18.8-28.2,48.2-47.7,82.6-54.9l176.1-37c34.4-7.3,69.2-1.2,97.8,17a30.8,30.8,0,0,0,26.9,3.1,31.1,31.1,0,0,0-1.2-59,16.4,16.4,0,0,1-5.9-28.2,31.1,31.1,0,1,0-46.1-40.8c-18.8,28.2-48.2,47.7-82.6,54.9L162.4,130.6c-34.4,7.2-69.2,1.1-97.8-17.1A30.9,30.9,0,0,0,48,108.6Z"/></svg>