<svg xmlns="http://www.w3.org/2000/svg" viewBox="0 0 465 512"><path d="M338,416.2c-70,0-127-71.8-127-160.2S268,95.8,338,95.8,464.9,167.6,464.9,256,407.9,416.2,338,416.2Zm0-302.9c-60.3,0-109.4,64-109.4,142.7S277.7,398.7,338,398.7s109.3-64,109.3-142.7S398.3,113.3,338,113.3Z"/><path d="M360.2,334.3c-34.7,0-62.9-35.1-62.9-78.3a96.4,96.4,0,0,1,2.4-21.5,8.7,8.7,0,0,1,10.5-6.6,8.8,8.8,0,0,1,6.6,10.5,79.1,79.1,0,0,0-2,17.6c0,33.5,20.4,60.7,45.4,60.7s45.5-27.2,45.5-60.7-20.4-60.7-45.5-60.7a8.8,8.8,0,0,1,0-17.6c34.8,0,63,35.1,63,78.3S395,334.3,360.2,334.3Z"/><path d="M170.9,471.5a6.9,6.9,0,0,1-2-.3c-69-16.3-119-106.8-119-215.2s50-198.9,119-215.2a8,8,0,0,1,4.6.1,224.4,224.4,0,0,1,30.1,12,8.9,8.9,0,0,1,3.1,13.4c-36.5,46.2-57.4,115.4-57.4,189.7s20.9,143.5,57.4,189.7a8.9,8.9,0,0,1-3.1,13.4,223.3,223.3,0,0,1-30,12A12.6,12.6,0,0,1,170.9,471.5Zm-.3-413.1C111.6,74.3,67.4,158.5,67.4,256s44.2,181.7,103.2,197.6c5.2-1.7,10.4-3.7,15.6-5.9-34.7-49-54.5-118.1-54.5-191.7s19.8-142.7,54.5-191.7C181,62.1,175.8,60.1,170.6,58.4Z"/><path d="M274.8,512l-2-.2C191,492.4,131.7,384.9,131.7,256S191,19.6,272.8.2a9,9,0,0,1,4.6.2,268,268,0,0,1,0,511.2A7.5,7.5,0,0,1,274.8,512Zm-.3-494.1C203,36.7,149.3,138.4,149.3,256S203,475.3,274.5,494.1C378,460.5,447.3,365.1,447.3,256S378,51.5,274.5,17.9Z"/><path d="M80.1,378.8a8.5,8.5,0,0,1-3.8-.9C29.3,354.8.1,308.1.1,256s29.2-98.8,76.2-121.9a8.8,8.8,0,0,1,12,11.2C74.6,178.4,67.4,216.6,67.4,256s7.2,77.6,20.9,110.7a8.6,8.6,0,0,1-2.2,9.7A8.5,8.5,0,0,1,80.1,378.8ZM63.4,162.7a118.1,118.1,0,0,0,0,186.6,329.2,329.2,0,0,1,0-186.6Z"/></svg>