<svg xmlns="http://www.w3.org/2000/svg" viewBox="0 0 512 478"><path d="M149.4,34.1c-24.8-2.5-58.2,21.5-55.3,58.8-36.8,4.3-61.4,41.6-49,77.8a58.8,58.8,0,0,0-27.7,80.6,58.9,58.9,0,0,0,6.9,89.5C1.5,380,27.6,429.2,72.2,433.1c12.2,37.2,57.2,53,90,29.9,33.8,32.5,90.1,8.4,90.1-38.3,0-17.8,2.5-37.7-15.7-55.9,20.6-20.6,21.2-56.8,0-77.9,20.6-20.6,21.2-56.8,0-77.9a53.4,53.4,0,0,0,15.7-37.7c0-114.4-.1,136.1,0-122C252.3-5.6,170.6-20.5,149.4,34.1ZM199,218.2c32.5,0,43.8,42.5,19.6,60.9a53.4,53.4,0,0,0-19.6-3.8c-13.7,0-13.7,20.8,0,20.8,32.2,0,44,42.5,19.6,60.9-37-14.7-35,17-19.6,17a32.6,32.6,0,0,1,32.5,32.5v18.2c0,28.3-33.9,43.1-54.7,23.6a59.1,59.1,0,0,0,10.6-33.6c0-41.6-28.7-27.8-23.3-13.5a36.7,36.7,0,0,1,2.5,13.5c0,40.6-55.3,53.1-72.9,16.5a61.6,61.6,0,0,0,45.5-58.4c30.4-3.4,60.4-35.2,42.9-45.1a10.4,10.4,0,0,0-14.2,3.9,40.9,40.9,0,0,1-39.1,20.7c-6.6-.7-12.2,5.4-11,12.2a40.9,40.9,0,0,1-40.2,48.1c-38.9,0-55.7-49.4-25.1-73.1,10.8-8.5-1.9-24.9-12.7-16.4l-2,1.7A38.2,38.2,0,1,1,86,265.9c9.7,9.7,24.4-5,14.7-14.7a59.2,59.2,0,0,0-66.1-11.9C23.7,213.9,42.5,186,69.8,186c13.7,0,28.3,14.6,52.5,8.5,13.4-3.3,8.3-23.5-5-20.1-17.9,4.5-28.1-10.8-52-9-9.7-24.8,8.4-51.3,34.5-52.1a55,55,0,0,0,20.4,21.9c11.8,7.1,22.5-10.6,10.8-17.8-28.1-16.9-17.8-60.1,14.9-62.5a55.7,55.7,0,0,0,5.5,21.7c13.8,28.7,46.3,24.7,41.1,24.7,13.7,0,13.8-20.8,0-20.8-37.8,0-32.9-59.7,6.5-59.7a32.4,32.4,0,0,1,23,9.5c15.2,15.2,7.6,25.7,9.5,145.2a32.6,32.6,0,0,1-12.9,25.7C181.6,186.5,183.6,218.2,199,218.2Z"/><path d="M75.3,324.2c-4.5,13.9-5.3,42.1,9.6,42.1A10.3,10.3,0,0,0,94.8,353a38.3,38.3,0,0,1,48.4-47.3,10.5,10.5,0,0,0,13.1-6.7C163.8,275.7,91.9,272.2,75.3,324.2Z"/><path d="M197.6,139.5c-1.4,3.2-9.1,19.3-23.8,21.6a72.6,72.6,0,0,0-14.1-17.7c-10-9.4-24.3,5.7-14.3,15.1,26.2,24.6,12.6,56-10,65.2-12.7,5.1-4.9,24.4,7.8,19.2A59.5,59.5,0,0,0,180.1,181c22.7-5.2,33.7-26.6,36.6-33.3C222.1,135.1,203,126.8,197.6,139.5Z"/><path d="M362.4,285.9c-13,4.2-6.7,24,6.4,19.8,29.4-9.4,57,18.1,48.4,47.3-3.9,13.2,16,19.1,19.9,5.9a59.1,59.1,0,0,0-74.7-73Z"/><path d="M382.3,237.2a10.3,10.3,0,0,0-5.7-13.5c-23.2-9.4-35.8-41-10-65.2,10-9.4-4.3-24.5-14.3-15.1a72.6,72.6,0,0,0-14.1,17.7c-14.7-2.3-22.4-18.4-23.8-21.6-5.4-12.6-24.5-4.5-19.1,8.2,2.9,6.7,13.9,28.1,36.6,33.3C327,225.3,374.2,257.3,382.3,237.2Z"/><path d="M494.6,251.3a58.8,58.8,0,0,0-27.7-80.6,59.1,59.1,0,0,0-49-77.8c2.9-37-30.1-61.4-55.3-58.8C341.2-21.1,259.7-5.1,259.7,53.3c.1,279.2,0-30.6,0,122A53.4,53.4,0,0,0,275.4,213c-20.6,20.5-21.3,56.6,0,77.9-20.6,20.5-21.3,56.7,0,77.9-18.1,18-15.7,36.5-15.7,55.9,0,46.7,56.3,70.8,90.1,38.3,32.8,23.1,77.8,7.3,90-29.9a61.5,61.5,0,0,0,47.9-92.3A59,59,0,0,0,494.6,251.3Zm-20.4,73.5-2-1.7a10.2,10.2,0,0,0-14.5,1.8,10.4,10.4,0,0,0,1.8,14.6,40.9,40.9,0,1,1-66,32.3c0-6.9,2.7-11.2-1.8-16.2s-7-3.2-12-3.2a40.8,40.8,0,0,1-35.6-20.8,10.4,10.4,0,0,0-14.2-3.9c-17.5,9.9,12.5,41.7,42.9,45.1a61.6,61.6,0,0,0,45.5,58.4A38.6,38.6,0,0,1,383.7,453c-26.7,0-45.2-26.8-35.8-51.8,4.8-12.8-14.6-20.2-19.5-7.3a59.2,59.2,0,0,0,6.8,54.4c-20.7,19.4-54.7,4.7-54.7-23.6V406.5A32.6,32.6,0,0,1,313,374c15.4,0,17.4-31.7-19.6-17-24.4-18.5-12.6-60.9,19.6-60.9,15.4,0,17.4-31.7-19.6-17-24.2-18.3-13.1-60.9,19.6-60.9,15.5,0,17.3-31.6-19.6-17a32.5,32.5,0,0,1-12.9-25.8V53.3a32.5,32.5,0,0,1,32.4-32.5c39.5,0,44.4,59.7,6.6,59.7-13.7,0-13.8,20.8,0,20.8,32.4,0,45.9-26,46.6-46.4,32.7,2.4,43,45.6,14.9,62.5a10.5,10.5,0,0,0-3.5,14.3c8.4,13.8,27.3-4,34.7-18.4,26.1.8,44.2,27.3,34.5,52.1-10.7-.8-17.1,1.2-27.8,5.3-8.5,3.3-15.2,5.9-24.2,3.7a10.4,10.4,0,1,0-5,20.1c15.3,3.8,27.2-.7,36.7-4.4,5.7-2.2,10.7-4.1,15.8-4.1,27.2,0,46.1,27.9,35.2,53.4a58.9,58.9,0,0,0-66.1,11.8c-9.7,9.7,5,24.4,14.7,14.7a37.4,37.4,0,0,1,21.7-10.7C487.7,249.6,507.9,302.2,474.2,324.8Z"/></svg>