<svg xmlns="http://www.w3.org/2000/svg" viewBox="0 0 512 448"><path d="M310,447.5c-70.1,0-136.7-38.6-168-56.8-18.7-10.8-33.5-7.8-46.4,9.6a9.7,9.7,0,0,1-15.5-11.5c18.8-25.3,44.2-30.6,71.6-14.7,35.2,20.4,117.6,68.1,193.6,50.2,167.1-39.5,154-205.4,140.6-274.9-4.2-21.5-11.4-40.2-21.6-55.4C442.7,61.6,400.8,27.8,324,50.6c-34.8,10.3-71.8-4.9-87.9-36.1a9.7,9.7,0,0,1,17.2-8.8c11.8,23,39.3,34.1,65.2,26.4,68.7-20.4,126.2-2.2,161.9,51.2,11.5,17.4,19.8,38.4,24.4,62.4,11.3,58.5,33.5,252.8-155.1,297.4A173.2,173.2,0,0,1,310,447.5Z"/><path d="M9.7,404.3H8.8A9.6,9.6,0,0,1,0,393.8c6.2-71,65.9-114.1,148.9-107.2,41.1,3.4,72.7-12.3,84.6-42,13.6-33.9-2.8-76.2-41.7-107.8C141.1,95.6,140.5,44,148.8,7.9a9.7,9.7,0,0,1,18.8,4.4c-10.4,44.7,1.9,81.5,36.3,109.5,45.7,37.1,64.3,88.1,47.5,130-15,37.4-54.9,58-104.1,54-72.5-6-122.8,29.2-128,89.7A9.7,9.7,0,0,1,9.7,404.3Z"/><path d="M267.8,143.9a9.6,9.6,0,0,1-5.9-17.3l35.9-27.4a9.7,9.7,0,0,1,11.7,15.4l-35.9,27.3A9.7,9.7,0,0,1,267.8,143.9Z"/><path d="M392.6,226.6a9.6,9.6,0,0,1-5.8-17.3L422.6,182a9.6,9.6,0,1,1,11.7,15.3l-35.8,27.3A10,10,0,0,1,392.6,226.6Z"/><path d="M391.5,305.3a9.7,9.7,0,0,1-7.7-3.8l-27.3-35.8a9.7,9.7,0,0,1,1.8-13.5,9.6,9.6,0,0,1,13.5,1.8l27.4,35.8a9.7,9.7,0,0,1-1.9,13.6A9.6,9.6,0,0,1,391.5,305.3Z"/><path d="M341.7,386.2a9.7,9.7,0,0,1-1-19.3l44.9-4.6a9.7,9.7,0,1,1,2,19.2l-44.9,4.6Z"/><circle cx="358.1" cy="142.8" r="15.9"/><path d="M323.2,207.6a16,16,0,1,1-16-15.9A16,16,0,0,1,323.2,207.6Z"/><circle cx="344.8" cy="330.6" r="15.9"/><circle cx="209" cy="338.2" r="15.9"/><path d="M240.8,67.2a15.9,15.9,0,1,1-15.9-15.9A16,16,0,0,1,240.8,67.2Z"/><path d="M460.3,252.2a15.9,15.9,0,1,1-15.9-15.9A16,16,0,0,1,460.3,252.2Z"/><path d="M416.5,111.8l-2.3-.3-33.8-8.3a9.7,9.7,0,0,1,4.7-18.8l33.7,8.4a9.6,9.6,0,0,1-2.3,19Z"/><path d="M308.2,277.8l-2.3-.2-33.8-8.4a9.6,9.6,0,1,1,4.6-18.7l33.8,8.3a9.6,9.6,0,0,1-2.3,19Z"/><path d="M293.7,372.7a9.7,9.7,0,0,1-9.2-6.6l-10.7-33.2a9.7,9.7,0,0,1,18.4-5.9l10.7,33.1a9.8,9.8,0,0,1-6.2,12.2A10.3,10.3,0,0,1,293.7,372.7Z"/></svg>