<svg xmlns="http://www.w3.org/2000/svg" viewBox="0 0 476 512"><path d="M158,2.9a11.5,11.5,0,0,0-13,8.6L134.3,57.6,100.7,88.9c-13-1.1-42-3.5-46.3-3.5A12.1,12.1,0,0,0,48.6,87L5.8,112.2a11.4,11.4,0,0,0-5.6,9.9v5.8c1.1,69.3,21.9,123.3,57.3,193.3C76,357.6,83.1,393.8,89.3,425.9,98.4,472.1,106.2,512,149,512c39.1,0,51.1-49.4,61.8-92.9,6.7-27.5,15-61.8,27.2-61.8V334.5c-30.1,0-39.5,38.5-49.4,79.2-8.6,35.4-18.4,75.5-39.6,75.5s-27.7-18.6-37.3-67.7c-6.2-31.8-13.9-71.4-33.8-110.6C43.3,242.6,24.2,193.2,23.1,128.5l34.2-20.1,46.6,3.6a11.4,11.4,0,0,0,8.7-3l39.8-37.1a10.7,10.7,0,0,0,3.3-5.7l9.1-38.8c12,2.7,22,6.3,31.1,9.4,13.8,4.9,26.8,9.5,42.1,9.5V23.5c-11.4,0-21.6-3.6-34.6-8.2S176.8,6,158,2.9Z"/><path d="M354.9,0C316.1,0,292,8.5,272.6,15.3c-13,4.6-23.2,8.2-34.6,8.2V46.3c15.3,0,28.4-4.6,42.2-9.5,18.7-6.5,39.8-14,74.7-14,61.4,0,98.1,37.1,98.1,99.2,0,67.9-19.3,118.8-54.9,188.9-19.9,39.2-27.6,78.8-33.8,110.6-9.6,49.1-15.3,67.7-37.2,67.7S296,449,287.4,413.6c-10-40.6-19.3-79.1-49.4-79.1v22.9c12.2,0,20.5,34.2,27.2,61.7,10.7,43.5,22.7,92.9,61.9,92.9,42.8,0,50.6-39.9,59.6-86.1,6.2-32.1,13.3-68.3,31.8-104.7,36.3-71.5,57.3-127.1,57.3-199.2C475.8,47.9,428.3,0,354.9,0Z"/></svg>