<svg xmlns="http://www.w3.org/2000/svg" viewBox="0 0 512 477"><path d="M512,56.9a5.2,5.2,0,0,0-5.2-5.2,5.4,5.4,0,0,0-2.8.8c-12.6-2.6-41.2-1.7-41.2-1.7s-4.7-22.3-38.4-22.3c0,0-2.6-22.2-6.8-24.3s-13.5,14.2-13.5,14.2,1.3-15-6.7-18.2-66.1,83.6-87,122.7-130.1,49.9-145,49.9-86.3-6.1-60-42.5c20.8-21.9,40.7,20.3,39.8,29,2,5.4,32-25.6,18.6-63.3C139.4,43.2,56.9,32.6,28.6,85.8S43.4,212.6,48.1,216.6c0,0-56.6,55.3-12.8,118.7,10,16.6-25.6,36.4-32.4,52.6s-4.7,89,36.5,89,24.9-39.1,8.7-48.6C32,402,86.6,375.8,96,367.7s42.5-26.3,40.5-63.4c-.7-15.5,72.1,16.8,95,20.9s70.8,3.3,78.9-5.4-18.2,133.5,29,142.9,70.1-8.7,58.7-27.6-37.1-14.2-23.6-65.4.6-53.3,0-56,71.4-73.5,72.8-106.5S436.5,119.5,479,102c35.5-14.7,34.2-33.1,32.1-42.3A5.2,5.2,0,0,0,512,56.9Z"/></svg>