<svg xmlns="http://www.w3.org/2000/svg" viewBox="0 0 512 512"><path d="M359.8,152.2V.1H152.2V152.2H0V359.8H152.2V511.9H359.8V359.8H512V152.2Zm-91.1,34.3c4.6-22.9,21.1-38.8,36.8-35.6s24.7,24.2,20.1,47.1-21.1,38.7-36.8,35.6S264.1,209.3,268.7,186.5Zm-54.6-31c16.1-2.1,31.6,15,34.6,38.2s-7.7,43.7-23.8,45.7-31.5-15-34.5-38.2S198,157.5,214.1,155.5ZM131.4,258.7c-7.5-16.2-3.7-33.9,8.5-39.5s28,3,35.5,19.3,3.7,33.9-8.5,39.5S138.8,275,131.4,258.7Zm174,99.1c-18.2.5-28.6-10-46-10-9.5,0-17.1,5.6-38.2,11.6-24.8,7-48.7-3.1-53.3-30.3-6.8-40.7,40.7-89.2,88.3-89.2,53.8,0,90,46.4,90,80.6C346.2,350.4,314.8,357.6,305.4,357.8Zm76.1-102c-6.8,17.7-23.1,28-36.3,22.9s-18.4-23.6-11.6-41.3,23.1-28.1,36.3-23S388.3,238,381.5,255.8Z"/></svg>