<svg xmlns="http://www.w3.org/2000/svg" xmlns:xlink="http://www.w3.org/1999/xlink" viewBox="0 0 1024 498.4"><defs><path id="a" d="M254.4.2c-46.8 1.9-90.1 14.5-129.8 37.7-39.7 23.3-70.8 54.8-93.1 94.5C9.1 172-1.3 213.9.1 257.9c2 44.3 15.3 85.2 39.9 122.7 24.6 37.6 57.9 66.9 99.9 88 41.4 20.9 85.7 30.7 132.8 29.6 47.1-1.1 91-12.7 131.7-34.9 40.8-22.1 72.4-52 95-89.7l116.2-197.5c19.8-35.2 50.7-59.5 92.5-72.8 19.3-5.6 40.4-6.9 63.3-3.9 22.9 2.9 43.8 9.2 62.7 18.7 18.4 9.2 34.3 21.4 47.7 36.4 13.4 15 23.2 32 29.3 51.1 11.9 41 8.1 78.8-11.5 113.6-9.8 17.4-22.7 32.3-38.9 44.9-16.2 12.5-34.3 21.7-54.4 27.5-20.1 5.8-40.6 7.7-61.4 5.8-20.8-1.9-40.4-7.5-58.8-16.7l-49.4 87.8c42.5 21.4 86.7 31.3 132.8 29.6 46.8-1.9 90.1-14.5 129.8-37.7 39.7-23.3 70.8-54.8 93.1-94.5 22.3-39.7 32.8-81.5 31.3-125.5-2-44.3-15.3-85.2-39.9-122.7-24.6-37.6-57.9-66.9-99.9-88C842.6 8.8 798.3-1 751.3.1c-47.1 1.1-91 12.7-131.8 34.9-33.5 18.2-60.8 41.8-82.1 70.5l-.1-.1-.6 1c-4.3 5.9-8.4 11.9-12.2 18.2L429.2 287l-20.9 35.1c-19.8 35.2-50.7 59.5-92.5 72.8-19.3 5.6-40.4 6.9-63.3 3.9-22.9-2.9-43.8-9.2-62.7-18.7-18.4-9.2-34.2-21.4-47.7-36.4-13.4-15-23.2-32-29.3-51.1-11.9-41-8.1-78.8 11.5-113.6 9.8-17.4 22.7-32.3 38.9-44.9 16.2-12.6 34.3-21.7 54.4-27.5 20.1-5.8 40.6-7.7 61.4-5.8 20.8 1.9 40.4 7.5 58.8 16.7l49.4-87.8C347.7 9.9 306.7 0 264.2 0c-3.3 0-6.5.1-9.8.2"/><clipPath id="b"><use xlink:href="#a" overflow="visible"/></clipPath><linearGradient id="c" gradientUnits="userSpaceOnUse" x1="-.933" y1="-267.286" x2="3.982" y2="-267.286" gradientTransform="matrix(208.3464 0 0 -208.3464 194.376 -55438.61)"><stop offset="0.25" style="stop-color:#793a8a"/><stop offset="0.75" style="stop-color:#69aa9d"/></linearGradient></defs><path clip-path="url(#b)" fill="url(#c)" d="M-1.3-1h1026.7v500.9H-1.3z"/><g><path fill="#79398A" d="M300.4 191c35.4 17.8 48.8 59.4 30 92.9-18.9 33.5-62.8 46.1-98.2 28.3-35.4-17.8-48.8-59.4-30-92.9 18.8-33.4 62.8-46.1 98.2-28.3"/><path fill="#69AA9D" d="M789.1 191c35.4 17.8 48.8 59.4 30 92.9-18.9 33.5-62.8 46.1-98.2 28.3-35.4-17.8-48.8-59.4-30-92.9 18.8-33.4 62.8-46.1 98.2-28.3"/></g></svg>