<svg xmlns="http://www.w3.org/2000/svg" xmlns:xlink="http://www.w3.org/1999/xlink" viewBox="0 0 1024 667"><g fill="#fff"><path d="M341.1.6a185.8,185.8,0,0,0-87.6,25.5,170.1,170.1,0,0,0-62.8,63.8c-15,26.7-22.2,54.9-21.1,84.7a161.9,161.9,0,0,0,27,82.9c16.6,25.4,39.1,45.1,67.4,59.4a185.3,185.3,0,0,0,89.6,19.9,193.6,193.6,0,0,0,89-23.5c27.5-15,48.8-35.1,64.1-60.6l78.4-133.4c13.4-23.7,34.2-40.1,62.4-49,13-3.8,27.3-4.7,42.7-2.7a131.6,131.6,0,0,1,42.4,12.6,107.9,107.9,0,0,1,32.2,24.5,93.1,93.1,0,0,1,19.7,34.5c8,27.6,5.5,53.2-7.8,76.7a102.3,102.3,0,0,1-26.2,30.3,111.8,111.8,0,0,1-117.8,11.2l-33.3,59.2c28.7,14.4,58.5,21.1,89.6,19.9A185.4,185.4,0,0,0,776.5,311a169.7,169.7,0,0,0,62.9-63.8c15-26.7,22-55,21.1-84.7a162.5,162.5,0,0,0-27-82.8c-16.6-25.4-39.2-45.2-67.4-59.5A187.9,187.9,0,0,0,676.5.3a192.1,192.1,0,0,0-89,23.6c-22.6,12.2-41,28.1-55.3,47.5h-.1l-.5.7c-2.9,3.9-5.6,8-8.2,12.3L459.1,194,445,217.7c-13.4,23.8-34.2,40.1-62.4,49.1-13,3.7-27.3,4.6-42.8,2.6a131.8,131.8,0,0,1-42.3-12.6,106.7,106.7,0,0,1-32.2-24.5,93.9,93.9,0,0,1-19.8-34.5c-8-27.6-5.4-53.2,7.8-76.6a100.2,100.2,0,0,1,26.3-30.3,107,107,0,0,1,36.7-18.6,111.3,111.3,0,0,1,41.4-3.9,106.3,106.3,0,0,1,39.6,11.3l33.4-59.2A181.2,181.2,0,0,0,347.7.3c-2.1.2-4.3.2-6.6.3"/><path d="M341.1.6a185.8,185.8,0,0,0-87.6,25.5,170.1,170.1,0,0,0-62.8,63.8c-15,26.7-22.2,54.9-21.1,84.7a161.9,161.9,0,0,0,27,82.9c16.6,25.4,39.1,45.1,67.4,59.4a185.3,185.3,0,0,0,89.6,19.9,193.6,193.6,0,0,0,89-23.5c27.5-15,48.8-35.1,64.1-60.6l78.4-133.4c13.4-23.7,34.2-40.1,62.4-49,13-3.8,27.3-4.7,42.7-2.7a131.6,131.6,0,0,1,42.4,12.6,107.9,107.9,0,0,1,32.2,24.5,93.1,93.1,0,0,1,19.7,34.5c8,27.6,5.5,53.2-7.8,76.7a102.3,102.3,0,0,1-26.2,30.3,111.8,111.8,0,0,1-117.8,11.2l-33.3,59.2c28.7,14.4,58.5,21.1,89.6,19.9A185.4,185.4,0,0,0,776.5,311a169.7,169.7,0,0,0,62.9-63.8c15-26.7,22-55,21.1-84.7a162.5,162.5,0,0,0-27-82.8c-16.6-25.4-39.2-45.2-67.4-59.5A187.9,187.9,0,0,0,676.5.3a192.1,192.1,0,0,0-89,23.6c-22.6,12.2-41,28.1-55.3,47.5h-.1l-.5.7c-2.9,3.9-5.6,8-8.2,12.3L459.1,194,445,217.7c-13.4,23.8-34.2,40.1-62.4,49.1-13,3.7-27.3,4.6-42.8,2.6a131.8,131.8,0,0,1-42.3-12.6,106.7,106.7,0,0,1-32.2-24.5,93.9,93.9,0,0,1-19.8-34.5c-8-27.6-5.4-53.2,7.8-76.6a100.2,100.2,0,0,1,26.3-30.3,107,107,0,0,1,36.7-18.6,111.3,111.3,0,0,1,41.4-3.9,106.3,106.3,0,0,1,39.6,11.3l33.4-59.2A181.2,181.2,0,0,0,347.7.3c-2.1.2-4.3.2-6.6.3"/><path d="M372.3,129.4c23.9,12,32.9,40.1,20.2,62.7s-42.4,31.1-66.2,19.1-33-40.1-20.3-62.7,42.4-31.1,66.3-19.1"/><path d="M52.8,564.7a71.6,71.6,0,0,1-19.7-2.8A57.2,57.2,0,0,1,16.2,554C7.6,548,2.3,540.6.4,531.7l-.2-1.1L12.7,524v2.4c.4,7.1,4.1,12.9,11.2,17.5a45.4,45.4,0,0,0,12.9,6.2,61.5,61.5,0,0,0,15.8,2.1c11.3,0,21-2.8,28.7-8.2s11-11,11-17.8a18,18,0,0,0-4-11.1A32.3,32.3,0,0,0,77,506c-4.6-2.2-13.1-4-25.4-5.4l-11.1-1.7a64.9,64.9,0,0,1-16.7-4.7A45.3,45.3,0,0,1,6.4,480.5,30,30,0,0,1,0,461.8a28.4,28.4,0,0,1,4.3-15.1,38.9,38.9,0,0,1,11.9-12.4,58.4,58.4,0,0,1,16.9-7.9,71.5,71.5,0,0,1,19.7-2.7c13.9,0,26.1,3.5,36.6,10.6,8.7,6.3,14,13.8,15.6,22.1l.2,1.1-12.5,6.6v-2.4a17.9,17.9,0,0,0-3-9.1,31.5,31.5,0,0,0-8-8.4,43.8,43.8,0,0,0-13.1-6,59.4,59.4,0,0,0-31.3,0,41,41,0,0,0-13,6,30.7,30.7,0,0,0-8.4,8.5,17.2,17.2,0,0,0-2.9,9.3c0,3.9,1.6,7.8,4.7,11.8a35.2,35.2,0,0,0,11.9,9.4,44.4,44.4,0,0,0,9.9,2.9c3.6.6,8.4,1.2,14.3,1.9l7.6,1a117.7,117.7,0,0,1,12.1,2.4,49.1,49.1,0,0,1,9.9,3.6c6.9,3.8,12.4,8.3,16.2,13.7a28.9,28.9,0,0,1,5.9,17.6,30.2,30.2,0,0,1-4.2,15.3,38.1,38.1,0,0,1-11.8,12.6c-10.5,7-22.8,10.5-36.6,10.5"/><path d="M187.7,563.1H174.8V425.4h12.9Z"/><path d="M326.9,564.5A74.8,74.8,0,0,1,290,555a73.7,73.7,0,0,1-26.9-25.7,67.6,67.6,0,0,1-9.8-35.3,66.5,66.5,0,0,1,9.8-35.2A71.9,71.9,0,0,1,290,433.2a74.8,74.8,0,0,1,36.9-9.5,77.5,77.5,0,0,1,29.7,5.9,76.1,76.1,0,0,1,24.9,17l1.2,1.2-10,8.3-1-1.1a59.1,59.1,0,0,0-20.2-14.2,63.1,63.1,0,0,0-55,2.8,61.5,61.5,0,0,0-22.2,21.1,55.6,55.6,0,0,0,0,58.1,60.8,60.8,0,0,0,22.2,21.1,61.9,61.9,0,0,0,30.4,7.8A63.6,63.6,0,0,0,353,546a62,62,0,0,0,21.1-15.8l.8-1,10.4,7.5-1.1,1.2a71.3,71.3,0,0,1-25.5,19.3,70.3,70.3,0,0,1-31.8,7.3"/><path d="M541.7,563.1H446.4V425.4h95.3v12.4H459.3v50.1h64.2v12.5H459.3v49.8h82.4Z"/><path d="M701.9,563.1H609.1V425.4h12.8V550.7h80Z"/><path d="M862.1,563.1H769.3V425.4h12.9V550.7h80v12.4Z"/><path d="M971.4,564.7a71.6,71.6,0,0,1-19.7-2.8,57.2,57.2,0,0,1-16.9-7.9c-8.6-6-13.8-13.4-15.8-22.3l-.2-1.1,12.5-6.6v2.4c.4,7.1,4.1,12.9,11.2,17.5a45.4,45.4,0,0,0,12.9,6.2,62.1,62.1,0,0,0,15.8,2.1c11.3,0,21-2.8,28.7-8.2s11-11,11-17.8a17.4,17.4,0,0,0-4-11.1,32.3,32.3,0,0,0-11.4-9.1c-4.6-2.2-13.1-4-25.4-5.4l-11.1-1.7a64.9,64.9,0,0,1-16.7-4.7,44.9,44.9,0,0,1-17.5-13.7,30,30,0,0,1-6.4-18.7,28.4,28.4,0,0,1,4.3-15.1,38.9,38.9,0,0,1,11.9-12.4,57.2,57.2,0,0,1,16.9-7.9,71.5,71.5,0,0,1,19.7-2.7c13.9,0,26.1,3.5,36.6,10.6,8.7,6.3,14,13.8,15.6,22.1l.2,1.1-12.5,6.6v-2.4a17.9,17.9,0,0,0-3-9.1,31.5,31.5,0,0,0-8-8.4,43.8,43.8,0,0,0-13.1-6,59.4,59.4,0,0,0-31.3,0,41,41,0,0,0-13,6,30.7,30.7,0,0,0-8.4,8.5,17.2,17.2,0,0,0-2.9,9.3c0,3.9,1.6,7.8,4.7,11.8a34.6,34.6,0,0,0,12,9.4,42,42,0,0,0,9.8,2.9c3.6.6,8.4,1.2,14.3,1.9l7.6,1a117.7,117.7,0,0,1,12.1,2.4,49.1,49.1,0,0,1,9.9,3.6c6.9,3.8,12.4,8.3,16.2,13.7a28.9,28.9,0,0,1,5.9,17.6,30.2,30.2,0,0,1-4.2,15.3,38.1,38.1,0,0,1-11.8,12.6c-10.4,7-22.6,10.5-36.5,10.5M7.3,612.7l9.3,42.2h.1l9.4-42.2h5.8L19.4,666H14.1L1.5,612.7Zm66.2,0v4.9H54.8v18.1H68.6v4.9H54.8v20.5H74.3V666H49.1V612.7Zm42.8,0v4.9h-11V666H99.5V617.6H88.6v-4.9Zm40.8,0v4.9H138.6v18.1h13.7v4.9H138.6v20.5h19.5V666H132.8V612.7Zm19.5,0h12.9c8.6,0,14.7,5,14.7,13.8,0,6-2.7,11-8.6,13.2l9.1,26.4h-6.1l-8.5-25.3-7.6.4v24.9h-5.8V612.7Zm5.8,23.3h5c8.3,0,11-3.3,11-9.2s-2.7-9.3-11-9.3h-5Zm42.7-23.3h5.7V666h-5.7Zm35.3,0L274.1,652h.2V612.7h5.8V666h-6.2l-16.6-46.4h-.1V666h-5.8V612.7Zm55.3,0L327.5,666h-5.8l-3.2-15.8H305L301.8,666H296l11.7-53.3Zm-10,32.6h12l-5.9-28.7h-.1ZM344,612.7h12.8c8.5,0,14.6,5,14.6,13.8,0,6-2.7,11-8.5,13.2l9,26.4h-6l-8.6-25.3-7.5.4v24.9H344Zm5.9,23.3h5c8.3,0,11-3.3,11-9.2s-2.7-9.3-11-9.3h-5Zm43.4-23.3,9.2,23.3,8.8-23.3h6.2l-12.3,30.7V666h-5.7V643.4l-12.4-30.7Zm68.8,0h14.2c8,0,12.6,5.3,12.6,13.1,0,5.3-2.4,10.1-8.2,11.8h0c6.4,1.7,9.3,6.9,9.3,13.5,0,9.9-5.4,14.8-17.1,14.8H462.1V612.7Zm5.7,22.9H471c8.4,0,12-2.6,12-9.7s-2.7-8.3-9.5-8.3h-5.8v18Zm0,25.5h5.8c6.9,0,10.7-3,10.7-9.9s-3.1-10.8-10.7-10.8h-5.8Zm42.8-48.4h5.8V666h-5.8Zm40.5,54.1c-8.9,0-15-7.6-15-27.5s6.1-27.4,15-27.4,15.1,7.6,15.1,27.4-6,27.5-15.1,27.5m0-50c-5.1,0-9.2,4.5-9.2,22.5s4.1,22.5,9.2,22.5,9.3-4.4,9.3-22.5-4-22.5-9.3-22.5m57.8-4.1v4.9H598V666h-5.8V617.6h-11v-4.9Zm40.9,0v4.9H631.3v18.1h13.6v4.9H631.3v20.5h19.4V666H625.4V612.7Zm41.4,16.1c-.7-8.4-3.4-12-7.9-12-6.7,0-9.7,5.9-9.7,22.5s3,22.5,9.7,22.5,8.5-3.7,8.6-13.5h5.8c-.1,11.8-5.3,18.5-14.4,18.5s-15.5-7.3-15.5-27.5,5.9-27.4,15.5-27.4c7.9,0,12.8,5.5,13.7,16.9Zm31.9-16.1v23h15.7v-23h5.7V666h-5.7V640.6H723.1V666h-5.8V612.7Zm50.6,0L787.4,652h.1V612.7h5.8V666h-6.2l-16.5-46.4h-.3V666h-5.7V612.7ZM827,666.8c-9.1,0-15.1-7.6-15.1-27.5s6.1-27.4,15.1-27.4,15,7.6,15,27.4-6.1,27.5-15,27.5m0-50c-5.1,0-9.3,4.5-9.3,22.5s4.2,22.5,9.3,22.5,9.3-4.4,9.3-22.5-4.2-22.5-9.3-22.5m40.2-4.1v48.4h17.3V666H861.4V612.7Zm47.6,54.1c-9,0-15.1-7.6-15.1-27.5s6.1-27.4,15.1-27.4,15,7.6,15,27.4-6,27.5-15,27.5m0-50c-5.1,0-9.3,4.5-9.3,22.5s4.2,22.5,9.3,22.5,9.3-4.4,9.3-22.5-4.1-22.5-9.3-22.5m56.6,12.3c-.4-6.9-2.5-12.3-8.3-12.3s-9.5,5.8-9.5,22.5,3.1,22.5,9.5,22.5,8.3-2.9,8.3-8.4v-7.6h-7.2v-4.9h13v25h-3.8l-.7-3.9a11.4,11.4,0,0,1-9.7,4.6c-9.4,0-15.3-7.2-15.3-27.4s5.9-27.4,15.3-27.4,13.3,8.6,14.1,17.2h-5.7Zm28.4-16.4L1009,636l8.8-23.3h6.2l-12.3,30.7V666H1006V643.4l-12.4-30.7Z"/><path d="M702,129.4c23.9,12,32.9,40.1,20.2,62.7s-42.4,31.1-66.3,19.1-33-40.1-20.3-62.7,42.5-31.1,66.4-19.1"/></g></svg>