<svg xmlns="http://www.w3.org/2000/svg" xmlns:xlink="http://www.w3.org/1999/xlink" viewBox="0 0 1024 1024"><defs><clipPath id="logo-sq-a"><path d="M351.8,199.8a174.1,174.1,0,0,0-82.1,23.9,158.7,158.7,0,0,0-58.9,59.8c-14.1,25-20.8,51.5-19.8,79.4a152.2,152.2,0,0,0,25.3,77.7c15.6,23.8,36.7,42.3,63.2,55.7a174.7,174.7,0,0,0,84,18.7,181.4,181.4,0,0,0,83.4-22.1q38.7-21,60.1-56.8l73.5-125q18.9-33.5,58.5-46c12.2-3.5,25.6-4.4,40.1-2.5a124,124,0,0,1,39.7,11.8,100.5,100.5,0,0,1,30.2,23,87.8,87.8,0,0,1,18.5,32.3q11.3,38.9-7.3,71.9A95.3,95.3,0,0,1,735.6,430a102.5,102.5,0,0,1-34.4,17.4,103.9,103.9,0,0,1-38.8,3.7,101.5,101.5,0,0,1-37.2-10.6L593.9,496c26.9,13.5,54.9,19.8,84,18.7A174.1,174.1,0,0,0,760,490.8,158.7,158.7,0,0,0,818.9,431q21.1-37.7,19.8-79.4a152.2,152.2,0,0,0-25.3-77.7c-15.6-23.8-36.7-42.3-63.2-55.7a174.7,174.7,0,0,0-84-18.7,181.4,181.4,0,0,0-83.4,22.1q-31.8,17.3-51.9,44.6h-.1l-.4.6c-2.7,3.7-5.3,7.5-7.7,11.5L462.4,381.1l-13.2,22.2q-18.9,33.4-58.5,46c-12.2,3.5-25.6,4.4-40.1,2.5A124,124,0,0,1,310.9,440a100.5,100.5,0,0,1-30.2-23,87.8,87.8,0,0,1-18.5-32.3q-11.2-38.8,7.3-71.9a95.3,95.3,0,0,1,24.6-28.4A102.5,102.5,0,0,1,328.5,267a103.9,103.9,0,0,1,38.8-3.7,101.5,101.5,0,0,1,37.2,10.6l31.3-55.5q-37.5-18.9-77.8-18.9c-2,.2-4.1.2-6.2.3" fill="none"/></clipPath><linearGradient id="b" x1="254.75" y1="770.5" x2="257.86" y2="770.5" gradientTransform="translate(-52886.3 -160173.2) scale(208.35)" gradientUnits="userSpaceOnUse"><stop offset="0.25" stop-color="#793a8a"/><stop offset="0.75" stop-color="#69aa9d"/></linearGradient></defs><g clip-path="url(#logo-sq-a)"><path d="M190,199H839.6V515.9H190Z" fill="url(#b)"/></g><path d="M381,320.5c22.4,11.3,30.9,37.6,19,58.8s-39.8,29.2-62.1,17.9-30.9-37.6-19-58.8,39.7-29.1,62.1-17.9" fill="#79398a"/><path d="M81.5,728.6A66.7,66.7,0,0,1,63,726a53.5,53.5,0,0,1-15.8-7.4c-8.1-5.6-13-12.6-14.8-20.9l-.2-1,11.7-6.2v2.2c.4,6.7,3.8,12.1,10.5,16.4a41.1,41.1,0,0,0,12.1,5.8,54.6,54.6,0,0,0,14.8,2c10.6,0,19.7-2.6,26.9-7.7s10.3-10.3,10.3-16.7a17.2,17.2,0,0,0-3.7-10.4,30.1,30.1,0,0,0-10.7-8.5c-4.3-2.1-12.3-3.8-23.8-5.1L70,666.9a58.4,58.4,0,0,1-15.7-4.4A42.9,42.9,0,0,1,38,649.7a28.5,28.5,0,0,1-6-17.5A26.8,26.8,0,0,1,36,618a37.3,37.3,0,0,1,11.2-11.6A54.7,54.7,0,0,1,63,599a66.7,66.7,0,0,1,18.5-2.6c13,0,24.5,3.3,34.3,10,8.2,5.9,13.1,12.9,14.6,20.7l.2,1-11.7,6.2v-2.2a17.2,17.2,0,0,0-2.8-8.6,28.9,28.9,0,0,0-7.5-7.8A39.8,39.8,0,0,0,96.2,610a56,56,0,0,0-29.3,0,37.2,37.2,0,0,0-12.2,5.7,28.2,28.2,0,0,0-7.9,7.9,15.9,15.9,0,0,0-2.7,8.7c0,3.7,1.5,7.4,4.4,11.1a31.1,31.1,0,0,0,11.2,8.8,39.7,39.7,0,0,0,9.2,2.7c3.4.6,7.9,1.2,13.4,1.8l7.2,1a102.6,102.6,0,0,1,11.3,2.2,43.3,43.3,0,0,1,9.3,3.4,44.1,44.1,0,0,1,15.2,12.8,27.5,27.5,0,0,1,5.5,16.5,28.6,28.6,0,0,1-3.9,14.4,36.5,36.5,0,0,1-11.1,11.8c-9.8,6.5-21.4,9.8-34.3,9.8" fill="#69aa9d"/><path d="M208,727.1H195.9V598H208Z" fill="#69aa9d"/><path d="M338.5,728.4a70.2,70.2,0,0,1-34.6-8.9,67.8,67.8,0,0,1-25.2-24.1,64,64,0,0,1,0-66.1,67.6,67.6,0,0,1,25.2-24,70.2,70.2,0,0,1,34.6-8.9,71.6,71.6,0,0,1,51.2,21.5l1.1,1.1-9.4,7.8-.9-1a56.7,56.7,0,0,0-19-13.3,59,59,0,0,0-51.5,2.6,56.5,56.5,0,0,0-20.8,19.8,51.9,51.9,0,0,0,0,54.4A55.7,55.7,0,0,0,310,709.1a57.8,57.8,0,0,0,28.5,7.3,58.6,58.6,0,0,0,24.4-5.3,57.9,57.9,0,0,0,19.8-14.8l.8-1,9.7,7.1-1,1.1a66.6,66.6,0,0,1-23.9,18.1,65.7,65.7,0,0,1-29.8,6.8"/><path d="M539.8,727.1H450.5V598h89.3v11.7H462.6v46.9h60.2v11.7H462.6V715h77.2Z"/><path d="M690,727.1H603V598h12V715.5h75Z"/><path d="M840.2,727.1h-87V598h12.1V715.5h75v11.6Z"/><path d="M942.7,728.6a66.7,66.7,0,0,1-18.5-2.6,53.5,53.5,0,0,1-15.8-7.4c-8.1-5.6-13-12.6-14.8-20.9l-.2-1,11.7-6.2v2.2c.4,6.7,3.8,12.1,10.5,16.4a41.1,41.1,0,0,0,12.1,5.8,54.6,54.6,0,0,0,14.8,2c10.6,0,19.7-2.6,26.9-7.7s10.3-10.3,10.3-16.7a16.6,16.6,0,0,0-3.7-10.4,30.1,30.1,0,0,0-10.7-8.5c-4.3-2.1-12.3-3.8-23.8-5.1l-10.4-1.6a58.4,58.4,0,0,1-15.7-4.4,42.5,42.5,0,0,1-16.4-12.8,28.5,28.5,0,0,1-6-17.5,26.8,26.8,0,0,1,4-14.2,37.3,37.3,0,0,1,11.2-11.6,53.5,53.5,0,0,1,15.8-7.4,66.7,66.7,0,0,1,18.5-2.6c13,0,24.5,3.3,34.3,10,8.2,5.9,13.1,12.9,14.6,20.7l.2,1L980,634.3v-2.2a17.2,17.2,0,0,0-2.8-8.6,28.9,28.9,0,0,0-7.5-7.8,39.8,39.8,0,0,0-12.3-5.7,56,56,0,0,0-29.3,0,37.2,37.2,0,0,0-12.2,5.7,28.2,28.2,0,0,0-7.9,7.9,15.9,15.9,0,0,0-2.7,8.7c0,3.7,1.5,7.4,4.4,11.1a31.1,31.1,0,0,0,11.2,8.8,39.7,39.7,0,0,0,9.2,2.7c3.4.6,7.9,1.2,13.4,1.8l7.2,1a102.6,102.6,0,0,1,11.3,2.2,43.3,43.3,0,0,1,9.3,3.4,44.1,44.1,0,0,1,15.2,12.8,27.5,27.5,0,0,1,5.5,16.5A28.6,28.6,0,0,1,988,707a36.5,36.5,0,0,1-11.1,11.8c-9.7,6.5-21.2,9.8-34.2,9.8m-903.9,45,8.8,39.6h.1l8.8-39.6h5.4l-11.7,50h-5l-11.8-50Zm62.1,0v4.6H83.4v17H96.3v4.6H83.4V819h18.3v4.6H78v-50Zm40.1,0v4.6H130.7v45.4h-5.4V778.2H115.1v-4.6Zm38.3,0v4.6H161.9v17h12.9v4.6H161.9V819h18.3v4.6H156.5v-50Zm18.3,0h12.1c8,0,13.7,4.7,13.7,13,0,5.6-2.5,10.3-8,12.3l8.5,24.8h-5.7l-8-23.7-7.1.3v23.4h-5.4V773.6Zm5.4,21.9h4.7c7.8,0,10.3-3.1,10.3-8.7s-2.5-8.7-10.3-8.7H203Zm40-21.9h5.4v50H243Zm33.1,0L289,810.5h.2V773.6h5.4v50h-5.8l-15.6-43.5h-.1v43.5h-5.4v-50Zm51.9,0,11,50h-5.4l-3-14.8H317.9l-3,14.8h-5.4l11-50Zm-9.4,30.6h11.2l-5.5-26.9h-.1Zm35.9-30.6h12c8,0,13.7,4.7,13.7,13,0,5.6-2.5,10.3-8,12.3l8.5,24.8H375L367,800l-7.1.3v23.4h-5.4Zm5.5,21.9h4.7c7.8,0,10.3-3.1,10.3-8.7s-2.5-8.7-10.3-8.7H360Zm40.7-21.9,8.6,21.9,8.3-21.9h5.8l-11.5,28.8v21.2h-5.4V802.4l-11.6-28.8Zm64.5,0h13.3c7.5,0,11.8,5,11.8,12.3,0,5-2.2,9.5-7.6,11.1h0c6,1.6,8.7,6.4,8.7,12.6,0,9.3-5.1,13.9-16.1,13.9H465.2v-50Zm5.4,21.5h3c7.8,0,11.2-2.4,11.2-9.1s-2.5-7.8-8.9-7.8h-5.4v16.9Zm0,23.9H476c6.5,0,10-2.8,10-9.3s-2.9-10.1-10-10.1h-5.4Zm40.1-45.4h5.4v50h-5.4Zm38,50.7c-8.4,0-14.1-7.1-14.1-25.7s5.7-25.7,14.1-25.7,14.1,7.1,14.1,25.7-5.6,25.7-14.1,25.7m0-46.8c-4.8,0-8.7,4.2-8.7,21.1s3.9,21.1,8.7,21.1,8.7-4.2,8.7-21.1-3.8-21.1-8.7-21.1m54.1-3.9v4.6H592.6v45.4h-5.4V778.2H576.9v-4.6Zm38.4,0v4.6H623.8v17h12.8v4.6H623.8V819H642v4.6H618.3v-50ZM680,788.7c-.7-7.9-3.2-11.2-7.4-11.2-6.3,0-9.1,5.5-9.1,21.1s2.8,21.1,9.1,21.1,8-3.5,8.1-12.7h5.4c-.1,11.1-5,17.3-13.5,17.3s-14.5-6.8-14.5-25.7,5.5-25.7,14.5-25.7c7.4,0,12,5.1,12.8,15.8Zm29.9-15.1v21.6h14.7V773.6H730v50h-5.4V799.8H709.9v23.8h-5.4v-50Zm47.4,0,12.9,36.9h.1V773.6h5.4v50h-5.8l-15.5-43.5h-.2v43.5h-5.4v-50Zm50,50.7c-8.5,0-14.1-7.1-14.1-25.7s5.7-25.7,14.1-25.7,14.1,7.1,14.1,25.7-5.7,25.7-14.1,25.7m0-46.8c-4.8,0-8.7,4.2-8.7,21.1s3.9,21.1,8.7,21.1,8.7-4.2,8.7-21.1-3.9-21.1-8.7-21.1m37.7-3.9V819h16.2v4.6H839.6v-50Zm44.6,50.7c-8.4,0-14.1-7.1-14.1-25.7s5.7-25.7,14.1-25.7,14.1,7.1,14.1,25.7-5.6,25.7-14.1,25.7m0-46.8c-4.8,0-8.7,4.2-8.7,21.1s3.9,21.1,8.7,21.1,8.7-4.2,8.7-21.1-3.8-21.1-8.7-21.1M942.7,789c-.4-6.5-2.4-11.5-7.8-11.5s-8.9,5.4-8.9,21.1,2.9,21.1,8.9,21.1,7.8-2.8,7.8-7.9v-7.1h-6.8v-4.6h12.2v23.4h-3.5l-.7-3.7a10.7,10.7,0,0,1-9.1,4.4c-8.8,0-14.3-6.8-14.3-25.7s5.5-25.7,14.3-25.7,12.5,8,13.2,16.1h-5.3Zm26.6-15.4,8.6,21.9,8.3-21.9H992l-11.5,28.8v21.2h-5.4V802.4l-11.6-28.8Z"/><path d="M690.1,320.5c22.4,11.3,30.9,37.6,19,58.8s-39.8,29.2-62.2,17.9-30.9-37.6-19-58.8,39.8-29.1,62.2-17.9" fill="#69aa9d"/></svg>