<svg xmlns="http://www.w3.org/2000/svg" xmlns:xlink="http://www.w3.org/1999/xlink" viewBox="0 0 1024.5 165"><defs><linearGradient id="a" x1="253.72" y1="751.8" x2="256.29" y2="751.8" gradientTransform="translate(-32904.6 -97416.7) scale(129.69)" gradientUnits="userSpaceOnUse"><stop offset="0.25" stop-color="#793a8a"/><stop offset="0.75" stop-color="#69aa9d"/></linearGradient></defs><path fill="url(#a)" d="M244.1,2.5a93.1,93.1,0,0,0-42.7,11.3,79.6,79.6,0,0,0-26.7,23l-.2.3c-1.4,1.9-2.8,3.8-4,5.8L139.6,95.6l-6.8,11.5c-6.4,11.4-16.4,19.3-30.1,23.5a50,50,0,0,1-20.6,1.3,61.4,61.4,0,0,1-20.4-6.1A51,51,0,0,1,46.3,114a44.2,44.2,0,0,1-9.5-16.5c-3.9-13.4-2.7-25.6,3.7-36.9A50.6,50.6,0,0,1,53.1,45.9,52.7,52.7,0,0,1,70.8,37a53.9,53.9,0,0,1,39,3.5L126,12A88.5,88.5,0,0,0,82.9,2.4,91.4,91.4,0,0,0,40.6,14.9,82.1,82.1,0,0,0,10.4,45.5,76.9,76.9,0,0,0,.3,86.3a77.8,77.8,0,0,0,13,39.9,82.3,82.3,0,0,0,32.4,28.5,87,87,0,0,0,43.1,9.6A92,92,0,0,0,131.6,153a77.9,77.9,0,0,0,30.8-29.1l37.8-64.1c6.4-11.4,16.4-19.3,30.1-23.6a51.7,51.7,0,0,1,20.6-1.3A63.2,63.2,0,0,1,271.2,41a51.8,51.8,0,0,1,15.5,11.9,44.2,44.2,0,0,1,9.5,16.5c3.8,13.3,2.7,25.6-3.7,36.9a48.9,48.9,0,0,1-12.6,14.6,51.1,51.1,0,0,1-17.7,9,53.7,53.7,0,0,1-20,1.9,53,53,0,0,1-19.1-5.4l-16,28.4a86.3,86.3,0,0,0,43.1,9.6,88.4,88.4,0,0,0,42.2-12.2,82.1,82.1,0,0,0,30.2-30.6,76.9,76.9,0,0,0,10.1-40.8,78.7,78.7,0,0,0-13-39.9,82.9,82.9,0,0,0-32.5-28.6,89.6,89.6,0,0,0-40.7-9.6,10.1,10.1,0,0,0-2.4-.2"/><path d="M97.7,64.5c11.5,5.8,15.9,19.3,9.7,30.2S87,109.6,75.5,103.9,59.6,84.6,65.8,73.7s20.5-15,31.9-9.2" fill="#79398a"/><g fill="#69aa9d"><path d="M256.4,64.5c11.5,5.8,15.9,19.3,9.7,30.2s-20.4,14.9-31.9,9.2-15.9-19.3-9.7-30.2,20.4-15,31.9-9.2"/><path d="M400.8,91a44.2,44.2,0,0,1-12.6-1.9,33.5,33.5,0,0,1-10.8-5c-5.6-3.8-9-8.6-10.2-14.3v-.7l8-4.3v1.5c.3,4.6,2.6,8.2,7.2,11.2a25.6,25.6,0,0,0,8.3,4,41.7,41.7,0,0,0,10.1,1.3c7.3,0,13.5-1.8,18.5-5.2s7-7,7-11.4a11.2,11.2,0,0,0-2.5-7.1,20.4,20.4,0,0,0-7.4-5.9c-3-1.5-8.4-2.7-16.2-3.5l-7.1-1.1a38.4,38.4,0,0,1-10.8-3,28.2,28.2,0,0,1-11.2-8.7,19.5,19.5,0,0,1-4.2-12,18.8,18.8,0,0,1,2.8-9.7,26.2,26.2,0,0,1,7.7-7.9,40.4,40.4,0,0,1,10.9-5A44.3,44.3,0,0,1,401,.5a41.2,41.2,0,0,1,23.4,6.8c5.7,4.1,9,8.9,10,14.2l.2.6-8,4.3-.2-1.5a11.4,11.4,0,0,0-1.9-5.8,17.3,17.3,0,0,0-5.1-5.4A27.1,27.1,0,0,0,411,9.8a38.1,38.1,0,0,0-20.1,0,24.5,24.5,0,0,0-8.3,3.9,16.3,16.3,0,0,0-5.3,5.5,11,11,0,0,0-1.8,5.9,12.7,12.7,0,0,0,2.9,7.6,22,22,0,0,0,7.7,6.1,23.2,23.2,0,0,0,6.3,1.8c2.4.4,5.5.9,9.2,1.3l4.9.6a61.7,61.7,0,0,1,7.7,1.5,29.6,29.6,0,0,1,6.4,2.4,27.9,27.9,0,0,1,10.3,8.7A18.9,18.9,0,0,1,432,76.2a24.3,24.3,0,0,1-7.6,8.1A42.6,42.6,0,0,1,400.8,91"/><path d="M487.5,89.9h-8.2V1.6h8.2Z"/></g><path d="M576.7,90.8a48.2,48.2,0,0,1-23.6-6,46.7,46.7,0,0,1-17.3-16.6,42.8,42.8,0,0,1-6.3-22.6A42.8,42.8,0,0,1,535.8,23,45.5,45.5,0,0,1,553.1,6.6,47.2,47.2,0,0,1,576.7.5a48.5,48.5,0,0,1,19,3.8,47.9,47.9,0,0,1,16,10.9l.8.8-6.4,5.3-.7-.6a37.3,37.3,0,0,0-13-9.1A39.7,39.7,0,0,0,543,26.9a35.2,35.2,0,0,0-5.2,18.7A36.1,36.1,0,0,0,543,64.3a40.8,40.8,0,0,0,14.2,13.5,39.6,39.6,0,0,0,19.5,5,38,38,0,0,0,16.7-3.6,39.6,39.6,0,0,0,13.5-10.1l.6-.7,6.6,5-.7.7a46.3,46.3,0,0,1-16.3,12.4,48.4,48.4,0,0,1-20.3,4.3"/><path d="M714.7,89.9H653.6V1.6h61.1v8H661.8V41.7h41.1v8H661.8v32h52.9Z"/><path d="M817.5,89.9H757.9V1.6h8.2V82h51.3v7.9Z"/><path d="M920.2,89.9H860.6V1.6h8.2V82h51.3v7.9Zm99.5-34.4a18,18,0,0,1,1,20.1,24.4,24.4,0,0,1-7.3,7.8c-6.7,4.5-14.2,6.6-23,6.6a42,42,0,0,1-12.3-1.7,38.2,38.2,0,0,1-10.6-4.9c-5.3-3.8-8.5-8.3-9.7-13.7l6.1-3.2c.3,4.9,2.7,8.9,7.5,12a27.2,27.2,0,0,0,8.6,4,35.3,35.3,0,0,0,10.4,1.4c7.5,0,13.9-1.8,19-5.4s7.5-7.6,7.5-12.3a12.6,12.6,0,0,0-2.8-7.7,21.9,21.9,0,0,0-7.7-6.1c-3.1-1.5-8.6-2.6-16.6-3.6l-7.2-1.1a44.7,44.7,0,0,1-10.4-2.8,28.4,28.4,0,0,1-10.9-8.5A17.9,17.9,0,0,1,957.4,25a18,18,0,0,1,2.5-9.3,25.4,25.4,0,0,1,7.4-7.6,33.8,33.8,0,0,1,10.5-4.9,42.7,42.7,0,0,1,12.4-1.7,40,40,0,0,1,22.9,6.6q8.3,5.9,9.6,13.5l-6,3.2a12.8,12.8,0,0,0-2.1-6.4,18.8,18.8,0,0,0-5.4-5.5,30.3,30.3,0,0,0-8.7-4.1,40,40,0,0,0-10.3-1.4,39.4,39.4,0,0,0-10.3,1.4,29.1,29.1,0,0,0-8.7,4.1,21.3,21.3,0,0,0-5.6,5.6,12.6,12.6,0,0,0-2,6.4,12.9,12.9,0,0,0,3.3,8.2,21.6,21.6,0,0,0,8,6.3,24.7,24.7,0,0,0,6.5,1.9c2.3.5,5.4.9,9.1,1.3l4.9.7a44.5,44.5,0,0,1,7.6,1.5,26.2,26.2,0,0,1,6.2,2.2,27.7,27.7,0,0,1,10.5,8.5"/><path d="M371.6,121.8l6,27.1h.1l6.1-27.1h3.6l-8,34.2H376l-8.1-34.2Zm42.5,0v3.1h-12v11.7H411v3.1h-8.9v13.2h12.6V156H398.5V121.8Zm27.5,0v3.1h-7V156h-3.8V124.9h-7v-3.1Zm26.2,0v3.1H455.9v11.7h8.8v3.1h-8.8v13.2h12.5V156H452.2V121.8Zm12.5,0h8.2c5.6,0,9.4,3.2,9.4,8.8,0,3.9-1.7,7.1-5.5,8.5l5.7,16.9h-3.8l-5.6-16.2-4.8.2v16h-3.7V121.8Zm3.8,14.9h3.2c5.3,0,7-2.1,7-6s-1.7-5.9-7-5.9h-3.2v11.9Zm27.4-14.9h3.7V156h-3.7Zm22.6,0,8.8,25.2h.1V121.8h3.8V156h-4.1l-10.5-29.7h-.1V156h-3.8V121.8Zm35.5,0,7.6,34.2h-3.8l-2-10.1h-8.7L560.6,156h-3.7l7.6-34.2Zm-6.4,20.9h7.7L567,124.2h-.1l-3.7,18.5Zm24.6-20.9h8.3c5.5,0,9.3,3.2,9.3,8.8,0,3.9-1.7,7.1-5.5,8.5l5.8,16.9h-3.9l-5.5-16.2-4.8.2v16h-3.8V121.8Zm3.7,14.9h3.2c5.3,0,7-2.1,7-6s-1.7-5.9-7-5.9h-3.2v11.9Zm27.9-14.9,5.9,14.9,5.6-14.9h4l-7.8,19.7V156h-3.7V141.5l-8-19.7Zm44.2,0h9c5.2,0,8.2,3.4,8.2,8.4,0,3.4-1.5,6.5-5.3,7.6h0c4.2,1.1,6,4.4,6,8.6,0,6.4-3.5,9.5-11,9.5h-6.9V121.8Zm3.7,14.7h2.1c5.4,0,7.7-1.6,7.7-6.3s-1.7-5.3-6.1-5.3h-3.7Zm0,16.4H671c4.5,0,6.9-1.9,6.9-6.4s-2.1-6.9-6.9-6.9h-3.7Zm27.3-31.1h3.8V156h-3.8Zm26.2,34.6c-5.8,0-9.7-4.8-9.7-17.6s3.8-17.6,9.7-17.6,9.7,4.8,9.7,17.6-4,17.6-9.7,17.6m0-32c-3.3,0-6,2.9-6,14.6s2.7,14.5,6,14.5,5.9-2.9,5.9-14.5-2.6-14.6-5.9-14.6m37-2.6v3.1h-7.1V156h-3.6V124.9h-7v-3.1Zm26.2,0v3.1H772.1v11.7h8.8v3.1h-8.8v13.2h12.6V156H768.4V121.8Z"/><path d="M810.6,132.1c-.5-5.4-2.2-7.7-5.1-7.7s-6.2,3.9-6.2,14.6,1.9,14.5,6.2,14.5,5.4-2.4,5.5-8.8h3.7c-.1,7.6-3.4,11.9-9.2,11.9s-10-4.7-10-17.6,3.9-17.6,10-17.6,8.2,3.5,8.7,10.7Z"/><path d="M831.1,121.8v14.8h10.1V121.8h3.6V156h-3.6V139.7H831.1V156h-3.7V121.8Zm32.4,0,8.8,25.2h.1V121.8h3.8V156h-4.1l-10.5-29.7h-.1V156h-3.8V121.8Zm34.2,34.6c-5.7,0-9.7-4.8-9.7-17.6s3.9-17.6,9.7-17.6,9.7,4.8,9.7,17.6-3.8,17.6-9.7,17.6m0-32c-3.3,0-5.9,2.9-5.9,14.6s2.6,14.5,5.9,14.5,6-2.9,6-14.5-2.6-14.6-6-14.6m25.8-2.6v31.1h11.1V156H919.9V121.8Zm30.7,34.6c-5.8,0-9.8-4.8-9.8-17.6s3.9-17.6,9.8-17.6,9.7,4.8,9.7,17.6-4,17.6-9.7,17.6m0-32c-3.4,0-6,2.9-6,14.6s2.6,14.5,6,14.5,5.9-2.9,5.9-14.5-2.6-14.6-5.9-14.6m36.2,7.9c-.3-4.4-1.6-7.9-5.3-7.9S979,128.2,979,139s2,14.5,6.1,14.5,5.3-2,5.3-5.5v-4.8h-4.6V140h8.4v16h-2.4l-.4-2.5a7.2,7.2,0,0,1-6.2,2.9c-6,0-9.8-4.6-9.8-17.6s3.8-17.6,9.8-17.6,8.6,5.6,9.1,11h-3.9Zm18.3-10.5,5.8,14.9,5.8-14.9h3.9l-7.9,19.7V156h-3.6V141.5l-8-19.7Z"/></svg>