<svg xmlns="http://www.w3.org/2000/svg" xmlns:xlink="http://www.w3.org/1999/xlink" viewBox="0 0 1024 666.3"><defs><path id="a" d="M341.2.1c-31.6 1.3-60.8 9.8-87.6 25.5-26.8 15.7-47.8 37-62.8 63.7-15.1 26.8-22.1 55-21.1 84.7 1.3 29.9 10.3 57.5 26.9 82.8 16.6 25.4 39.1 45.2 67.4 59.4 28 14.1 57.8 20.7 89.6 20 31.8-.7 61.4-8.6 88.9-23.5 27.5-14.9 48.9-35.1 64.1-60.5L585 118.9c13.4-23.8 34.2-40.1 62.4-49.1 13-3.8 27.3-4.6 42.7-2.7 15.5 2 29.6 6.2 42.3 12.6 12.4 6.2 23.1 14.4 32.2 24.6 9.1 10.1 15.7 21.6 19.8 34.5 8 27.7 5.5 53.2-7.7 76.6-6.6 11.7-15.4 21.8-26.3 30.3s-23.1 14.7-36.7 18.6c-13.6 3.9-27.4 5.2-41.4 3.9-14-1.3-27.3-5-39.7-11.3l-33.4 59.2c28.7 14.4 58.5 21.1 89.6 20 31.6-1.3 60.8-9.8 87.6-25.5 26.8-15.7 47.8-37 62.8-63.7 15.1-26.8 22.1-55 21.1-84.7-1.3-29.9-10.3-57.5-26.9-82.8C816.8 54 794.3 34.2 766 20 738 5.9 708.2-.7 676.4 0c-31.8.7-61.4 8.6-88.9 23.5-22.6 12.3-41.1 28.2-55.4 47.6h-.1l-.4.7c-2.9 4-5.7 8-8.3 12.3L459 193.7l-14.1 23.7c-13.4 23.8-34.2 40.1-62.4 49.1-13 3.8-27.3 4.7-42.7 2.7-15.5-2-29.6-6.2-42.3-12.6-12.4-6.2-23.1-14.4-32.2-24.6-9.1-10.1-15.7-21.6-19.8-34.5-8-27.7-5.5-53.2 7.7-76.6 6.6-11.7 15.4-21.8 26.3-30.3s23.1-14.7 36.7-18.6c13.6-3.9 27.4-5.2 41.4-3.9 14 1.3 27.3 5 39.7 11.3l33.4-59.2C404.1 6.7 376.5 0 347.8 0c-2.2 0-4.4 0-6.6.1"/><clipPath id="b"><use xlink:href="#a" overflow="visible"/></clipPath><linearGradient id="c" gradientUnits="userSpaceOnUse" x1="-.119" y1="-182.552" x2="3.197" y2="-182.552" gradientTransform="matrix(208.3464 0 0 -208.3464 194.376 -37865.637)"><stop offset="0.25" style="stop-color:#793a8a"/><stop offset="0.75" style="stop-color:#69aa9d"/></linearGradient></defs><path clip-path="url(#b)" fill="url(#c)" d="M168.6-.7h692.9v338H168.6z"/><path fill="#79398A" d="M372.2 128.9c23.9 12 32.9 40.1 20.2 62.7s-42.4 31.1-66.3 19.1-32.9-40.1-20.2-62.7c12.8-22.6 42.4-31.1 66.3-19.1"/><path fill="#69AA9D" d="M702 128.9c23.9 12 32.9 40.1 20.2 62.7s-42.4 31.1-66.3 19.1-32.9-40.1-20.2-62.7 42.4-31.1 66.3-19.1M98.3 508.9c3.7 5.2 5.6 10.7 5.6 16.7 0 5.1-1.3 10-3.9 14.6-2.6 4.6-6.4 8.7-11.4 12.1-10.2 6.9-22.1 10.4-35.7 10.4-6.7 0-13.1-.9-19.3-2.7-6.1-1.8-11.6-4.3-16.4-7.7-8.5-5.8-13.5-12.9-15.3-21.3l9.4-5c.4 7.6 4.4 13.8 11.8 18.6 3.8 2.8 8.2 4.9 13.4 6.3 5.1 1.4 10.5 2.2 16.2 2.2 11.7 0 21.6-2.8 29.6-8.5 7.7-5.4 11.6-11.7 11.6-19.1 0-4.3-1.4-8.3-4.3-12-2.9-3.7-6.8-6.9-11.9-9.5-4.8-2.3-13.4-4.2-25.9-5.6-1-.1-4.7-.7-11.1-1.7-6.4-1-11.8-2.5-16.3-4.6-7.2-3.3-12.8-7.7-16.9-13.2-4.1-5.5-6.1-11.4-6.1-17.7 0-5.1 1.3-9.9 4.1-14.4 2.7-4.5 6.5-8.5 11.5-11.9 4.8-3.3 10.3-5.9 16.4-7.7 6.1-1.8 12.6-2.7 19.3-2.7 13.6 0 25.5 3.5 35.7 10.4 8.5 6.1 13.4 13.1 14.9 21.1l-9.4 5c-.1-3.5-1.2-6.8-3.2-9.9-2-3.2-4.8-6.1-8.4-8.7-3.9-2.8-8.5-4.9-13.6-6.3-5.1-1.4-10.4-2.2-16-2.2s-10.9.7-16.1 2.2c-5.2 1.4-9.7 3.6-13.5 6.3-3.8 2.6-6.7 5.6-8.8 8.8-2 3.2-3.1 6.6-3.1 10 0 4.3 1.7 8.5 5 12.7 3.4 4.2 7.5 7.5 12.5 9.8 3.1 1.4 6.5 2.4 10.2 3 3.7.6 8.5 1.3 14.4 2 1 .1 3.6.5 7.7 1 4.1.6 8 1.3 11.8 2.3 3.8 1 7 2.1 9.6 3.5 6.9 3.9 12.1 8.3 15.9 13.4"/><path fill="#69AA9D" d="M52.8 564.2c-6.8 0-13.4-.9-19.7-2.8-6.3-1.8-11.9-4.5-16.9-7.9-8.6-6-13.9-13.5-15.7-22.3l-.2-1.1 12.5-6.6.1 2.3c.4 7.2 4.1 12.9 11.2 17.5 3.7 2.7 8 4.7 13 6.1 4.9 1.4 10.3 2.1 15.8 2.1 11.3 0 21-2.8 28.7-8.2 7.4-5.1 11-11 11-17.8 0-3.9-1.3-7.7-4-11.1-2.7-3.5-6.5-6.6-11.4-9.1-4.6-2.2-13.2-4.1-25.3-5.4-1.1-.1-4.8-.7-11.1-1.7-6.5-1-12.1-2.6-16.7-4.7-7.4-3.4-13.2-8-17.5-13.6-4.3-5.7-6.4-12-6.4-18.6 0-5.4 1.4-10.5 4.3-15.2 2.8-4.6 6.8-8.8 11.9-12.4 4.9-3.4 10.6-6 16.9-7.9C39.6 424 46.2 423 53 423c13.8 0 26.1 3.6 36.6 10.6 8.8 6.3 14 13.7 15.5 22.1l.2 1.1-12.5 6.6-.1-2.4c-.1-3.2-1.1-6.3-3-9.2-1.9-3-4.6-5.8-8-8.3-3.8-2.6-8.2-4.7-13.1-6.1-9.9-2.8-21.2-2.8-31.3 0-5 1.4-9.4 3.4-13 6.1-3.7 2.5-6.5 5.3-8.4 8.4-1.9 3-2.8 6.1-2.8 9.2 0 3.9 1.6 7.9 4.7 11.8 3.2 4 7.2 7.2 12 9.4 2.9 1.3 6.2 2.3 9.8 2.9 3.7.6 8.5 1.3 14.3 2l7.7 1c4.1.6 8.2 1.3 12 2.3 3.9 1 7.2 2.2 10 3.6 6.9 3.7 12.4 8.3 16.2 13.6 3.9 5.4 5.9 11.3 5.9 17.6 0 5.4-1.4 10.5-4.1 15.3-2.7 4.8-6.7 9-11.8 12.6-10.9 7.4-23.2 11-37 11M3.7 531.8c1.9 7.5 6.7 14 14.3 19.3 4.7 3.2 10.1 5.7 16 7.5 6 1.8 12.3 2.6 18.9 2.6 13.2 0 25-3.4 34.9-10.1 4.7-3.3 8.4-7.2 10.9-11.6 2.5-4.4 3.8-9 3.8-13.9 0-5.6-1.8-10.9-5.3-15.8-3.6-5-8.7-9.2-15.2-12.7-2.5-1.3-5.7-2.5-9.3-3.4-3.7-.9-7.7-1.7-11.7-2.2l-7.7-1c-5.8-.7-10.7-1.4-14.4-2-3.9-.7-7.4-1.7-10.6-3.1-5.2-2.4-9.6-5.9-13.1-10.3-3.6-4.5-5.4-9.1-5.4-13.7 0-3.7 1.1-7.4 3.3-10.8 2.1-3.4 5.2-6.5 9.2-9.2 3.9-2.8 8.6-5 13.9-6.5 10.6-3 22.5-3 32.9 0 5.2 1.5 10 3.7 14 6.5 3.8 2.7 6.8 5.8 8.8 9.1 1.7 2.7 2.7 5.5 3.2 8.4l6.5-3.4c-1.6-7.1-6.4-13.6-14.1-19.1-9.9-6.7-21.6-10.1-34.8-10.1-6.5 0-12.9.9-18.9 2.6-6 1.7-11.3 4.2-16 7.5-4.8 3.3-8.5 7.2-11.1 11.5C4.3 452 3 456.6 3 461.4c0 6 2 11.7 5.8 16.8 3.9 5.2 9.4 9.5 16.3 12.7 4.4 2 9.7 3.5 15.9 4.4 6.3 1 10 1.5 11 1.7 12.7 1.4 21.3 3.3 26.3 5.7 5.3 2.7 9.5 6.1 12.5 10 3 4 4.6 8.3 4.6 12.9 0 7.8-4.1 14.6-12.3 20.3-8.2 5.8-18.5 8.8-30.4 8.8-5.8 0-11.4-.7-16.6-2.2-5.3-1.5-9.9-3.7-13.8-6.6-7-4.6-11.1-10.4-12.2-17.5l-6.4 3.4zM176.4 426.4h9.9v134.7h-9.9z"/><path fill="#69AA9D" d="M187.7 562.5h-12.9V424.9h12.9v137.6zm-9.8-3h6.9V427.9h-6.9v131.6z"/><path d="M326.9 562.5c-13 0-25.1-3.1-36.2-9.3-11.1-6.2-19.9-14.6-26.3-25.2-6.4-10.6-9.6-22.1-9.6-34.5 0-12.4 3.2-23.9 9.6-34.4 6.4-10.5 15.2-18.9 26.3-25.1 11.1-6.2 23.2-9.3 36.2-9.3 10.1 0 19.8 2 29 5.9 9.3 3.9 17.4 9.5 24.4 16.7l-7.7 6.4c-5.8-6.2-12.8-11-20.7-14.5-8-3.5-16.3-5.2-25.1-5.2-11.3 0-21.6 2.7-31.1 8s-17.1 12.5-22.7 21.6c-5.6 9.1-8.4 19.1-8.4 29.8 0 10.8 2.8 20.7 8.4 29.8 5.6 9.1 13.2 16.3 22.7 21.7 9.5 5.3 19.9 8 31.1 8 9.3 0 18.2-1.9 26.6-5.8 8.4-3.9 15.6-9.3 21.6-16.2l7.9 5.8c-6.9 8.2-15.2 14.5-25 19-9.6 4.6-20 6.8-31 6.8"/><path d="M326.9 564c-13.2 0-25.6-3.2-36.9-9.5-11.3-6.3-20.3-15-26.8-25.7-6.5-10.8-9.9-22.6-9.9-35.3 0-12.7 3.3-24.5 9.9-35.2 6.5-10.7 15.6-19.3 26.8-25.6 11.3-6.3 23.7-9.5 36.9-9.5 10.2 0 20.2 2 29.6 6 9.4 4 17.8 9.7 24.9 17l1.1 1.2-10 8.4-1-1c-5.7-6-12.5-10.8-20.2-14.2-7.7-3.4-16-5.1-24.5-5.1-10.9 0-21.2 2.6-30.4 7.8-9.2 5.2-16.7 12.3-22.1 21.1-5.5 8.8-8.2 18.6-8.2 29 0 10.4 2.8 20.2 8.2 29 5.5 8.9 12.9 16 22.1 21.1 9.2 5.2 19.4 7.8 30.4 7.8 9.1 0 17.8-1.9 26-5.7 8.2-3.8 15.3-9.1 21.1-15.8l.9-1 10.3 7.6-1 1.2c-7 8.3-15.6 14.8-25.5 19.4-9.9 4.7-20.5 7-31.7 7m0-137.8c-12.7 0-24.6 3.1-35.4 9.1-10.8 6.1-19.5 14.3-25.8 24.5-6.2 10.2-9.4 21.5-9.4 33.6 0 12.1 3.2 23.4 9.4 33.7 6.3 10.3 14.9 18.6 25.8 24.6 10.8 6.1 22.7 9.1 35.4 9.1 10.7 0 20.9-2.2 30.5-6.6 9-4.1 16.9-10 23.4-17.4l-5.5-4c-5.9 6.6-13 11.8-21.2 15.5-8.6 3.9-17.7 5.9-27.2 5.9-11.5 0-22.2-2.7-31.9-8.2-9.7-5.4-17.5-12.9-23.2-22.2-5.7-9.3-8.7-19.6-8.7-30.6s2.9-21.3 8.7-30.6c5.7-9.3 13.5-16.8 23.2-22.2 9.7-5.4 20.4-8.2 31.9-8.2 8.9 0 17.6 1.8 25.7 5.3 7.7 3.3 14.5 8 20.2 13.8l5.3-4.5c-6.6-6.5-14.3-11.6-22.8-15.2-9-3.4-18.5-5.4-28.4-5.4M447.9 561V426.4h92.3v9.5h-82.4V489H522v9.5h-64.2v52.8h82.4v9.7z"/><path d="M541.6 562.5h-95.3V424.9h95.3v12.5h-82.4v50h64.2V500h-64.2v49.8h82.4v12.7zm-92.2-3h89.3v-6.7h-82.4V497h64.2v-6.5h-64.2v-56h82.4V428h-89.3v131.5zM610.5 561V426.4h9.9v125.3h80v9.3z"/><path d="M701.9 562.5H609V424.9h12.9v125.3h80v12.3zm-89.9-3h86.9v-6.3h-80V427.9H612v131.6zM770.7 561V426.4h9.9v125.3h80v9.3z"/><path d="M862 562.5h-92.8V424.9h12.9v125.3h80v12.3zm-89.8-3h86.9v-6.3h-80V427.9h-6.9v131.6zM1016.9 508.9c3.7 5.2 5.6 10.7 5.6 16.7 0 5.1-1.3 10-4 14.6-2.6 4.6-6.4 8.7-11.4 12.1-10.2 6.9-22.1 10.4-35.7 10.4-6.7 0-13.1-.9-19.3-2.7-6.1-1.8-11.6-4.3-16.4-7.7-8.3-5.8-13.4-12.9-15.1-21.3l9.4-5c.4 7.6 4.4 13.8 11.8 18.6 3.8 2.8 8.3 4.9 13.4 6.3 5.1 1.4 10.5 2.2 16.2 2.2 11.7 0 21.6-2.8 29.6-8.5 7.7-5.4 11.6-11.7 11.6-19.1 0-4.3-1.4-8.3-4.3-12-2.9-3.7-6.8-6.9-11.9-9.5-4.8-2.3-13.4-4.2-25.9-5.6-1-.1-4.7-.7-11.1-1.7-6.4-1-11.8-2.5-16.3-4.6-7.2-3.3-12.8-7.7-16.9-13.2-4.1-5.5-6.1-11.4-6.1-17.7 0-5.1 1.3-9.9 4.1-14.4 2.7-4.5 6.5-8.5 11.5-11.9 4.8-3.3 10.3-5.9 16.4-7.7 6.1-1.8 12.6-2.7 19.3-2.7 13.6 0 25.5 3.5 35.7 10.4 8.5 6.1 13.4 13.1 14.9 21.1l-9.4 5c-.1-3.5-1.2-6.8-3.2-9.9-2-3.2-4.8-6.1-8.4-8.7-3.9-2.8-8.5-4.9-13.6-6.3-5.1-1.4-10.4-2.2-16-2.2s-10.9.7-16.1 2.2c-5.2 1.4-9.7 3.6-13.5 6.3-3.8 2.6-6.7 5.6-8.8 8.8-2 3.2-3.1 6.6-3.1 10 0 4.3 1.7 8.5 5 12.7 3.4 4.2 7.5 7.5 12.5 9.8 3.1 1.4 6.5 2.4 10.2 3 3.7.6 8.5 1.3 14.4 2 1 .1 3.6.5 7.7 1 4.1.6 8 1.3 11.8 2.3 3.8 1 7 2.1 9.6 3.5 6.9 3.9 12.1 8.3 15.8 13.4"/><path d="M971.4 564.2c-6.8 0-13.4-.9-19.7-2.8-6.3-1.8-11.9-4.5-16.9-7.9-8.6-6-13.9-13.5-15.7-22.3l-.2-1.1 12.5-6.6.1 2.3c.4 7.2 4.1 12.9 11.2 17.5 3.7 2.7 8 4.7 13 6.1 4.9 1.4 10.3 2.1 15.8 2.1 11.3 0 21-2.8 28.7-8.2 7.4-5.1 11-11 11-17.8 0-3.9-1.3-7.7-4-11.1-2.7-3.5-6.6-6.6-11.4-9.1-4.6-2.2-13.2-4.1-25.3-5.4-1.1-.1-4.8-.7-11.1-1.7-6.5-1-12.1-2.6-16.7-4.7-7.4-3.4-13.2-8-17.5-13.6-4.3-5.7-6.4-12-6.4-18.6 0-5.4 1.4-10.5 4.3-15.2 2.8-4.7 6.8-8.8 11.9-12.4 4.9-3.4 10.6-6 16.9-7.9 6.3-1.8 12.9-2.8 19.7-2.8 13.8 0 26.1 3.6 36.6 10.6 8.8 6.3 14 13.7 15.5 22.1l.2 1.1-12.5 6.6-.1-2.4c-.1-3.2-1.1-6.3-2.9-9.2-1.9-3-4.6-5.8-8-8.3-3.8-2.6-8.2-4.7-13.1-6.1-9.9-2.8-21.3-2.8-31.3 0-5 1.4-9.4 3.4-13 6.1-3.7 2.5-6.5 5.3-8.4 8.4-1.9 3-2.8 6.1-2.8 9.3 0 3.9 1.6 7.9 4.7 11.8 3.2 4 7.2 7.2 12 9.4 2.9 1.3 6.2 2.3 9.8 2.9 3.7.6 8.5 1.3 14.3 2l7.7 1c4.1.6 8.2 1.3 12 2.3 3.9 1 7.2 2.2 10 3.6 6.9 3.7 12.3 8.3 16.2 13.6 3.9 5.4 5.9 11.3 5.9 17.6 0 5.4-1.4 10.5-4.1 15.3-2.7 4.8-6.7 9-11.8 12.6-10.9 7.3-23.2 10.9-37.1 10.9m-49.1-32.4c1.9 7.5 6.7 14 14.3 19.3 4.7 3.2 10.1 5.7 16 7.5 6 1.8 12.3 2.6 18.9 2.6 13.2 0 25-3.4 34.9-10.1 4.7-3.3 8.4-7.2 10.9-11.6 2.5-4.4 3.8-9 3.8-13.9 0-5.6-1.8-10.9-5.3-15.8-3.6-5-8.7-9.2-15.2-12.7-2.5-1.3-5.6-2.5-9.3-3.4-3.7-.9-7.7-1.7-11.7-2.2l-7.7-1c-5.8-.7-10.7-1.4-14.4-2-3.8-.7-7.4-1.7-10.6-3.1-5.2-2.4-9.6-5.9-13-10.3-3.6-4.5-5.4-9.1-5.4-13.7 0-3.7 1.1-7.4 3.3-10.8 2.1-3.4 5.2-6.5 9.2-9.2 3.9-2.8 8.6-5 13.9-6.5 10.6-3 22.5-3 32.9 0 5.3 1.5 10 3.7 14 6.5 3.8 2.8 6.8 5.8 8.8 9.1 1.7 2.7 2.7 5.5 3.2 8.4l6.5-3.4c-1.6-7.1-6.4-13.6-14.1-19.1-9.9-6.7-21.6-10.1-34.8-10.1-6.5 0-12.9.9-18.9 2.6-6 1.7-11.3 4.2-16 7.5-4.8 3.3-8.5 7.2-11.1 11.5-2.5 4.2-3.8 8.8-3.8 13.6 0 6 2 11.7 5.8 16.8 3.9 5.2 9.4 9.5 16.3 12.7 4.4 2 9.7 3.5 15.9 4.4 6.3 1 10 1.5 11 1.7 12.7 1.4 21.3 3.3 26.3 5.7 5.3 2.7 9.5 6.1 12.5 10 3 4 4.6 8.3 4.6 12.9 0 7.8-4.1 14.6-12.3 20.3-8.2 5.8-18.5 8.8-30.4 8.8-5.8 0-11.4-.7-16.6-2.2-5.3-1.5-9.9-3.7-13.8-6.6-7-4.6-11.1-10.4-12.2-17.5l-6.4 3.3zM7.3 612.2l9.3 42.2h.2l9.4-42.2h5.7l-12.5 53.3h-5.3L1.5 612.2zM73.5 612.2v4.8H54.8v18.2h13.8v4.9H54.8v20.5h19.5v4.9H49.1v-53.3zM116.2 612.2v4.8h-10.9v48.5h-5.8V617H88.6v-4.8zM157.2 612.2v4.8h-18.7v18.2h13.8v4.9h-13.8v20.5H158v4.9h-25.2v-53.3zM176.7 612.2h12.9c8.6 0 14.6 5 14.6 13.8 0 6-2.7 11-8.6 13.1l9 26.5h-6.1l-8.6-25.3-7.5.3v25h-5.8v-53.4zm5.7 23.3h5c8.3 0 10.9-3.3 10.9-9.2 0-6-2.7-9.2-10.9-9.2h-5v18.4zM225.1 612.2h5.8v53.4h-5.8zM260.4 612.2l13.8 39.3h.1v-39.3h5.8v53.3h-6.2l-16.6-46.4h-.1v46.4h-5.8v-53.3zM315.7 612.2l11.7 53.4h-5.8l-3.2-15.8h-13.6l-3.2 15.8H296l11.8-53.4h7.9zm-10 32.6h12l-5.9-28.7h-.1l-6 28.7zM344.1 612.2H357c8.6 0 14.6 5 14.6 13.8 0 6-2.7 11-8.6 13.1l9 26.5h-6.1l-8.6-25.3-7.5.3v25H344v-53.4zm5.7 23.3h5c8.3 0 10.9-3.3 10.9-9.2 0-6-2.7-9.2-10.9-9.2h-5v18.4zM393.3 612.2l9.1 23.3 8.9-23.3h6.2l-12.3 30.7v22.6h-5.7v-22.6L387 612.2zM462.1 612.2h14.2c8 0 12.6 5.3 12.6 13.2 0 5.3-2.4 10.1-8.1 11.8v.1c6.4 1.7 9.3 6.8 9.3 13.5 0 9.9-5.5 14.8-17.1 14.8h-10.8v-53.4zm5.8 22.9h3.2c8.3 0 12-2.5 12-9.7 0-6.1-2.7-8.3-9.5-8.3h-5.8v18zm0 25.5h5.8c6.9 0 10.6-3 10.6-9.9 0-7-3.1-10.8-10.6-10.8h-5.8v20.7zM510.6 612.2h5.8v53.4h-5.8zM551.2 666.3c-9 0-15.1-7.5-15.1-27.4s6.1-27.4 15.1-27.4 15.1 7.5 15.1 27.4c0 19.8-6.1 27.4-15.1 27.4m0-50c-5.2 0-9.3 4.4-9.3 22.5s4.1 22.5 9.3 22.5c5.2 0 9.3-4.4 9.3-22.5s-4.1-22.5-9.3-22.5M608.9 612.2v4.8H598v48.5h-5.8V617h-10.9v-4.8zM649.8 612.2v4.8h-18.6v18.2h13.7v4.9h-13.7v20.5h19.5v4.9h-25.3v-53.3zM691.2 628.3c-.7-8.4-3.4-12-7.9-12-6.7 0-9.7 5.9-9.7 22.5s3 22.5 9.7 22.5c5.4 0 8.5-3.7 8.6-13.6h5.8c-.1 11.8-5.3 18.5-14.4 18.5-9.5 0-15.4-7.2-15.4-27.4s5.9-27.4 15.4-27.4c7.9 0 12.8 5.5 13.7 16.8h-5.8zM723.1 612.2v23h15.7v-23h5.7v53.3h-5.7v-25.4h-15.7v25.4h-5.8v-53.3zM773.6 612.2l13.8 39.3h.1v-39.3h5.8v53.3h-6.2l-16.6-46.4h-.1v46.4h-5.8v-53.3zM827 666.3c-9 0-15.1-7.5-15.1-27.4s6.1-27.4 15.1-27.4 15.1 7.5 15.1 27.4c-.1 19.8-6.1 27.4-15.1 27.4m0-50c-5.2 0-9.3 4.4-9.3 22.5s4.1 22.5 9.3 22.5c5.2 0 9.3-4.4 9.3-22.5s-4.2-22.5-9.3-22.5M867.2 612.2v48.4h17.2v4.9h-23v-53.3zM914.8 666.3c-9 0-15.1-7.5-15.1-27.4s6.1-27.4 15.1-27.4 15.1 7.5 15.1 27.4c0 19.8-6.1 27.4-15.1 27.4m0-50c-5.2 0-9.3 4.4-9.3 22.5s4.1 22.5 9.3 22.5c5.2 0 9.3-4.4 9.3-22.5s-4.1-22.5-9.3-22.5M971.4 628.6c-.4-6.9-2.5-12.3-8.4-12.3-6.4 0-9.5 5.8-9.5 22.5 0 16.8 3.1 22.5 9.5 22.5 5.4 0 8.4-3 8.4-8.4v-7.5h-7.2v-4.9h13v25h-3.7l-.7-4c-2.2 3-5.3 4.7-9.7 4.7-9.4 0-15.3-7.2-15.3-27.4s5.9-27.4 15.3-27.4c9.8 0 13.4 8.6 14.1 17.1h-5.8zM999.8 612.2l9.1 23.3 8.9-23.3h6.2l-12.3 30.7v22.6h-5.7v-22.6l-12.4-30.7z"/></svg>