<svg xmlns="http://www.w3.org/2000/svg" xmlns:xlink="http://www.w3.org/1999/xlink" viewBox="0 0 256 1000"><defs><linearGradient id="jer-a" x1="570.99" y1="498.66" x2="624.71" y2="498.66" gradientTransform="translate(946.6 534.9) rotate(147.7)" gradientUnits="userSpaceOnUse"><stop offset="0" stop-color="#8d2f88"/><stop offset="0.37" stop-color="#8d2f88"/><stop offset="0.59" stop-color="#2f8096"/><stop offset="0.69" stop-color="#00a99d"/><stop offset="1" stop-color="#00a99d"/></linearGradient><linearGradient id="jer-b" x1="-319.51" y1="711.52" x2="-265.79" y2="711.52" gradientTransform="matrix(-0.56, 0.83, -0.83, -0.56, 543.05, 1068.23)" xlink:href="#jer-a"/><linearGradient id="jer-c" x1="-1185.16" y1="567.74" x2="-1131.44" y2="567.74" gradientTransform="matrix(-0.21, 0.98, -0.98, -0.21, 386.35, 1678.62)" xlink:href="#jer-a"/><linearGradient id="jer-d" x1="607.99" y1="466.93" x2="661.71" y2="466.93" gradientTransform="matrix(-0.84, 0.54, -0.54, -0.84, 955.16, 534.01)" xlink:href="#jer-a"/><linearGradient id="jer-e" x1="1416.18" y1="-25.84" x2="1469.9" y2="-25.84" gradientTransform="matrix(-0.99, 0.16, -0.16, -0.99, 1531.37, 213.15)" xlink:href="#jer-a"/><linearGradient id="jer-f" x1="1677.87" y1="-2942.99" x2="1731.59" y2="-2942.99" gradientTransform="matrix(-0.38, -0.92, 0.92, -0.38, 3446.29, 958.03)" xlink:href="#jer-a"/><linearGradient id="jer-g" x1="1643.04" y1="-2902.39" x2="1696.77" y2="-2902.39" gradientTransform="matrix(-0.38, -0.92, 0.92, -0.38, 3446.29, 958.03)" xlink:href="#jer-a"/><linearGradient id="jer-h" x1="2020.73" y1="-1381.94" x2="2074.45" y2="-1381.94" gradientTransform="matrix(-0.9, -0.44, 0.44, -0.9, 2536.16, 228.16)" xlink:href="#jer-a"/><linearGradient id="jer-i" x1="1870.08" y1="-980.96" x2="1923.8" y2="-980.96" gradientTransform="translate(2249.1 163.9) rotate(-164)" xlink:href="#jer-a"/><linearGradient id="jer-j" x1="1925.39" y1="-1790.56" x2="1979.11" y2="-1790.56" gradientTransform="matrix(-0.81, -0.59, 0.59, -0.81, 2805.66, 338.47)" xlink:href="#jer-a"/><linearGradient id="jer-k" x1="-1648.17" y1="120.66" x2="-1594.45" y2="120.66" gradientTransform="matrix(0.11, 0.99, -0.99, 0.11, 410.99, 2221.64)" xlink:href="#jer-a"/><linearGradient id="jer-l" x1="345.47" y1="-3840.65" x2="399.19" y2="-3840.65" gradientTransform="translate(3663.9 2031.5) rotate(-74)" xlink:href="#jer-a"/><linearGradient id="jer-m" x1="-195.61" y1="-3869.89" x2="-141.88" y2="-3869.89" gradientTransform="translate(3534.5 2460.8) rotate(-57.7)" xlink:href="#jer-a"/></defs><path d="M80.9,706.2h23.3v20.4h14.1l4.6,273.4h9.7l4.8-273.4h14V706.2h23.3V690.7h44.5a25.1,25.1,0,0,0,25.1-25.1v-.2l.2-463.2H211.7V349.3H169.8V202.2h86V159.1h-86V35.8h58.3V.1H27.9V35.7H86.2V159H.2v43.2H11.5V665.3h0a25.3,25.3,0,0,0,25.3,25.3H80.9Zm-36.7-504H86.1V349.3H44.2V202.2Zm-11.5,450,2.6-259.7H221.4l.2,258.9a14,14,0,0,1-14,14H45.7A12.9,12.9,0,0,1,32.7,652.2Z" fill="#00a99d" style="isolation:isolate"/><path d="M157.7,452.2a13.3,13.3,0,0,0,7.1,1.3,12.6,12.6,0,0,0,6.7-2.3,13.6,13.6,0,0,0,4.8-5.3,12.8,12.8,0,0,0,1.6-5.6h0V439l-.6-10.3v-2.2a8.3,8.3,0,0,1,1.9-6,7.9,7.9,0,0,1,2.7-2,10.1,10.1,0,0,1,3.4-.9,11.7,11.7,0,0,1,3.2.4,8.8,8.8,0,0,1,2.8,1.6,8.2,8.2,0,0,1,2.8,5.6,6.9,6.9,0,0,1-.4,3.2,6.1,6.1,0,0,1-1.6,2.8,6.9,6.9,0,0,1-2.5,2,8.5,8.5,0,0,1-3.1.9l.4,5.5a14.5,14.5,0,0,0,6.8-2.3,14.2,14.2,0,0,0,4.6-5.4,13.3,13.3,0,0,0,1.3-7.1,12.3,12.3,0,0,0-2.3-6.7,13.6,13.6,0,0,0-5.4-4.7,13.1,13.1,0,0,0-7-1.3,13.5,13.5,0,0,0-6.8,2.3,14.3,14.3,0,0,0-4.8,5.3,13,13,0,0,0-1.6,6.9l.7,12.5a8.3,8.3,0,0,1-1.9,6,7.9,7.9,0,0,1-2.7,2,10.2,10.2,0,0,1-3.3.9,8.5,8.5,0,0,1-3.2-.4,6.9,6.9,0,0,1-2.9-1.6,8.2,8.2,0,0,1-2.8-5.6,6.9,6.9,0,0,1,.4-3.2,8.6,8.6,0,0,1,4.1-4.8,8.5,8.5,0,0,1,3.1-.9l-.4-5.5a13.8,13.8,0,0,0-6.7,2.3,14.6,14.6,0,0,0-4.7,5.5,12.9,12.9,0,0,0-1.3,7,13.8,13.8,0,0,0,2.3,6.8A14.2,14.2,0,0,0,157.7,452.2Z" fill="url(#jer-a)"/><circle cx="185.6" cy="425.8" r="3.8" fill="#8d2f88"/><circle cx="163.9" cy="439.5" r="3.8" fill="#00a99d"/><path d="M111.3,450.7a14.1,14.1,0,0,0,7-1.5,14.7,14.7,0,0,0,5.3-4.9,14.9,14.9,0,0,0,2.3-6.8,14.4,14.4,0,0,0-.9-5.8h0a5.4,5.4,0,0,0-.5-1.1l-4.6-9.2-1-2a8.6,8.6,0,0,1-.6-6.3,7.9,7.9,0,0,1,1.7-2.9,9,9,0,0,1,2.7-2.1,8.5,8.5,0,0,1,3.1-.9,8.7,8.7,0,0,1,3.2.3,8,8,0,0,1,4.8,4,7.1,7.1,0,0,1,1,3.1,8.5,8.5,0,0,1-.4,3.2,8,8,0,0,1-1.5,2.9,9.6,9.6,0,0,1-2.5,2l2.5,4.9a13.7,13.7,0,0,0,5.3-4.8,14,14,0,0,0,2.1-6.9,14.2,14.2,0,0,0-6.4-12.2,13.9,13.9,0,0,0-6.8-2.1,13.1,13.1,0,0,0-7,1.6,13.6,13.6,0,0,0-5.3,4.8,15.3,15.3,0,0,0-2.3,6.8,13.3,13.3,0,0,0,1.3,6.9l5.7,11.2a8.6,8.6,0,0,1,.6,6.3,7.9,7.9,0,0,1-1.7,2.9,9,9,0,0,1-2.7,2.1,11.2,11.2,0,0,1-3.1,1,7.1,7.1,0,0,1-3.2-.4,8.1,8.1,0,0,1-5.8-7.1,6.9,6.9,0,0,1,.4-3.2,8,8,0,0,1,1.5-2.9,8.2,8.2,0,0,1,2.5-2l-2.6-4.9a14,14,0,0,0-7.3,11.7,13.3,13.3,0,0,0,1.6,7,12.7,12.7,0,0,0,4.8,5.2A13.9,13.9,0,0,0,111.3,450.7Z" fill="url(#jer-b)"/><circle cx="126.3" cy="415.4" r="3.8" fill="#8d2f88"/><circle cx="111.9" cy="436.6" r="3.8" fill="#00a99d"/><path d="M73.3,453.5a13.7,13.7,0,0,0,5.9-4.2,12.7,12.7,0,0,0,3-6.4,14.6,14.6,0,0,0-.4-7.2,12.2,12.2,0,0,0-3-5h0l-.9-.8L70.2,423l-1.7-1.4a8.6,8.6,0,0,1-3-5.6,9.5,9.5,0,0,1,.5-3.3,8.7,8.7,0,0,1,1.7-3,6.9,6.9,0,0,1,2.5-2,7.1,7.1,0,0,1,3.1-1,8.2,8.2,0,0,1,6,1.9,10,10,0,0,1,2.1,2.5,9,9,0,0,1,.9,3.2,8.8,8.8,0,0,1-.4,3.2,7.6,7.6,0,0,1-1.5,2.8l4.2,3.5a13.1,13.1,0,0,0,3-6.4,14.2,14.2,0,0,0-.6-7.1,13.7,13.7,0,0,0-10.6-8.9,13.6,13.6,0,0,0-12.9,4.7,14.1,14.1,0,0,0-3.1,6.5,13.2,13.2,0,0,0,.5,7.1,11.9,11.9,0,0,0,3.8,5.9l9.5,8.3a8.7,8.7,0,0,1,2.9,5.6,8.1,8.1,0,0,1-.5,3.3,11.1,11.1,0,0,1-1.7,3,8.2,8.2,0,0,1-2.5,2,8,8,0,0,1-3.1.9,8.1,8.1,0,0,1-6-1.9,8.2,8.2,0,0,1-2-2.5,7.9,7.9,0,0,1,1-9.1L58,431.6a13.4,13.4,0,0,0-3,6.5,14.3,14.3,0,0,0,.6,7.1,14.2,14.2,0,0,0,10.6,8.9A14.3,14.3,0,0,0,73.3,453.5Z" fill="url(#jer-c)"/><circle cx="73.9" cy="415.1" r="3.8" fill="#8d2f88"/><circle cx="68.5" cy="440.2" r="3.8" fill="#00a99d"/><path d="M151.8,502.1a14.4,14.4,0,0,0,7.1,1.2,12.6,12.6,0,0,0,6.7-2.3,13.8,13.8,0,0,0,4.8-5.4,11.2,11.2,0,0,0,1.5-5.6h0a2.4,2.4,0,0,0,0-1.2l-.6-10.2v-2.3a7.9,7.9,0,0,1,4.6-8,10.2,10.2,0,0,1,3.3-.9,11.2,11.2,0,0,1,3.2.4,6.6,6.6,0,0,1,2.8,1.6,7.9,7.9,0,0,1,2.9,5.6,7.1,7.1,0,0,1-.4,3.2,6.6,6.6,0,0,1-1.6,2.8,8.2,8.2,0,0,1-2.5,2,8.5,8.5,0,0,1-3.1.9l.4,5.5a13.8,13.8,0,0,0,11.4-7.8,13.1,13.1,0,0,0,1.3-7,13.6,13.6,0,0,0-2.4-6.8,13.3,13.3,0,0,0-5.4-4.6,13.1,13.1,0,0,0-7-1.3,13.6,13.6,0,0,0-6.8,2.4,14.5,14.5,0,0,0-4.8,5.3,13.9,13.9,0,0,0-1.5,6.9l.8,12.5a8.8,8.8,0,0,1-1.9,6,7.9,7.9,0,0,1-2.7,2,10.1,10.1,0,0,1-3.4.9,7.2,7.2,0,0,1-3.2-.4,8.5,8.5,0,0,1-2.8-1.5,8.8,8.8,0,0,1-2.9-5.6,11.2,11.2,0,0,1,.4-3.2,10.2,10.2,0,0,1,1.6-2.9,9.6,9.6,0,0,1,2.5-2,8.5,8.5,0,0,1,3.1-.9l-.4-5.5a13.6,13.6,0,0,0-6.8,2.4,14.2,14.2,0,0,0-4.6,5.4,14.5,14.5,0,0,0-1.3,7.1,13.2,13.2,0,0,0,2.4,6.7A13.6,13.6,0,0,0,151.8,502.1Z" fill="url(#jer-d)"/><circle cx="179.6" cy="475.5" r="3.8" fill="#8d2f88"/><circle cx="158" cy="489.3" r="3.8" fill="#00a99d"/><path d="M89,487a13,13,0,0,0,5.9,3.9,13.6,13.6,0,0,0,7.2.5,14.4,14.4,0,0,0,6.5-3,13.4,13.4,0,0,0,3.6-4.6h0a11.7,11.7,0,0,1,.5-1.1l3.4-9.8.8-2.1a7.9,7.9,0,0,1,4.1-4.7,7,7,0,0,1,3.3-.8,9.7,9.7,0,0,1,3.4.5,8.8,8.8,0,0,1,2.8,1.6,8.2,8.2,0,0,1,2,2.5,8.6,8.6,0,0,1,.4,6.3,8.3,8.3,0,0,1-4.2,4.8,6.8,6.8,0,0,1-3.1.8,6.9,6.9,0,0,1-3.2-.4l-1.7,5.3a13.2,13.2,0,0,0,7.1.4,14.2,14.2,0,0,0,6.4-3.1,14.9,14.9,0,0,0,3.9-6,13.4,13.4,0,0,0-2.7-13.5,13,13,0,0,0-6-4,14.3,14.3,0,0,0-7.1-.5,14.5,14.5,0,0,0-6.5,3.1,12.3,12.3,0,0,0-4.1,5.7l-4.2,11.8a8.4,8.4,0,0,1-4.1,4.8,8.9,8.9,0,0,1-3.3.8,12.7,12.7,0,0,1-3.4-.5,9.7,9.7,0,0,1-2.8-1.6,8.6,8.6,0,0,1-2-2.6,8.1,8.1,0,0,1-.4-6.3,8.8,8.8,0,0,1,1.6-2.8,8.3,8.3,0,0,1,2.6-1.9,8,8,0,0,1,3.1-.9,8.8,8.8,0,0,1,3.2.4l1.7-5.2a13.3,13.3,0,0,0-7.1-.5,14.4,14.4,0,0,0-6.4,3.2,13.6,13.6,0,0,0-3.9,6,13.2,13.2,0,0,0-.5,7.1A13.4,13.4,0,0,0,89,487Z" fill="url(#jer-e)"/><circle cx="124.9" cy="473.5" r="3.8" fill="#8d2f88"/><circle cx="99.6" cy="477.7" r="3.8" fill="#00a99d"/><path d="M58.7,489.5a14.2,14.2,0,0,0-1.4,13.8,14.4,14.4,0,0,0,4.5,5.6,13.2,13.2,0,0,0,5.2,2.5h.1l1.2.2,10.2,1.2,2.2.2a8.4,8.4,0,0,1,5.6,3,7.1,7.1,0,0,1,1.5,3,9.8,9.8,0,0,1,.3,3.4,8.5,8.5,0,0,1-.9,3.1,8.2,8.2,0,0,1-2,2.5,8.7,8.7,0,0,1-6.1,1.9,11.2,11.2,0,0,1-3.1-1,9.6,9.6,0,0,1-2.5-2A8,8,0,0,1,72,524a8.5,8.5,0,0,1-.3-3.2l-5.5-.5a12.8,12.8,0,0,0,1.1,7,13.8,13.8,0,0,0,4.6,5.5,12.5,12.5,0,0,0,6.7,2.5,12.8,12.8,0,0,0,7-1.1,13.5,13.5,0,0,0,5.5-4.5,12.8,12.8,0,0,0,2.5-6.8,13,13,0,0,0-1.1-7,14.6,14.6,0,0,0-4.4-5.7,13.7,13.7,0,0,0-6.6-2.7l-12.4-1.4a8.3,8.3,0,0,1-5.6-2.9,8.5,8.5,0,0,1-1.5-3,10.4,10.4,0,0,1-.3-3.5,8.4,8.4,0,0,1,3-5.6,8.2,8.2,0,0,1,6-1.8,8.5,8.5,0,0,1,3.1.9,7.2,7.2,0,0,1,2.5,2.1,7.6,7.6,0,0,1,1.5,2.8,7.1,7.1,0,0,1,.4,3.2l5.5.6a14.1,14.1,0,0,0-1.2-7.1,13.4,13.4,0,0,0-4.5-5.5,13.7,13.7,0,0,0-6.7-2.5,14.2,14.2,0,0,0-7.1,1.1A14.5,14.5,0,0,0,58.7,489.5Z" fill="url(#jer-f)"/><circle cx="80" cy="521.4" r="3.8" fill="#8d2f88"/><circle cx="70.2" cy="497.7" r="3.8" fill="#00a99d"/><path d="M109.5,506.1a14.3,14.3,0,0,0,3.1,19.4,12.3,12.3,0,0,0,5.3,2.5h0l1.2.2,10.3,1.2,2.2.3a8.5,8.5,0,0,1,5.6,2.9,8.3,8.3,0,0,1,1.4,3,10,10,0,0,1,.3,3.4,8.5,8.5,0,0,1-.9,3.1,8.2,8.2,0,0,1-8.1,4.4,6.7,6.7,0,0,1-3-1,8.2,8.2,0,0,1-2.5-2,8.3,8.3,0,0,1-1.6-2.9,8.5,8.5,0,0,1-.3-3.2l-5.5-.5a13.2,13.2,0,0,0,1.2,7.1,14.1,14.1,0,0,0,4.5,5.5,13.8,13.8,0,0,0,13.8,1.3,14.1,14.1,0,0,0,5.5-4.5,14.3,14.3,0,0,0-3.1-19.4,13.3,13.3,0,0,0-6.5-2.7l-12.5-1.5a8.5,8.5,0,0,1-5.6-2.9,8.3,8.3,0,0,1-1.4-3,10,10,0,0,1-.3-3.4,8.5,8.5,0,0,1,.9-3.1,8.2,8.2,0,0,1,8.1-4.4,6.7,6.7,0,0,1,3,1,8.2,8.2,0,0,1,2.5,2,8.3,8.3,0,0,1,1.6,2.9,8.5,8.5,0,0,1,.3,3.2l5.5.5a13.2,13.2,0,0,0-1.2-7.1,14.1,14.1,0,0,0-4.5-5.5,13.8,13.8,0,0,0-13.8-1.3A14.1,14.1,0,0,0,109.5,506.1Z" fill="url(#jer-g)"/><circle cx="130.8" cy="538.1" r="3.8" fill="#8d2f88"/><circle cx="121" cy="514.4" r="3.8" fill="#00a99d"/><path d="M63.4,560.2a13.9,13.9,0,0,0,2.6,6.7,14.3,14.3,0,0,0,12.6,5.8,12.1,12.1,0,0,0,5.6-1.6h0l1-.6,8.5-5.9,1.8-1.3a8.4,8.4,0,0,1,6.2-1.5,8.2,8.2,0,0,1,3.1,1.3,11.4,11.4,0,0,1,2.5,2.4,10.8,10.8,0,0,1,1.3,2.9,6.9,6.9,0,0,1,.1,3.2,7.7,7.7,0,0,1-3.3,5.4,7.8,7.8,0,0,1-2.9,1.4,12.2,12.2,0,0,1-3.3.1,8.6,8.6,0,0,1-3-1.2,7.7,7.7,0,0,1-2.3-2.1l-4.5,3.2a14.1,14.1,0,0,0,5.5,4.5,14.2,14.2,0,0,0,7,1.2,14.4,14.4,0,0,0,11.3-8.1,13.3,13.3,0,0,0,1.1-7.1,14.1,14.1,0,0,0-2.5-6.7,13.7,13.7,0,0,0-5.6-4.5,14.1,14.1,0,0,0-7-1.3,13,13,0,0,0-6.7,2.2l-10.3,7.2a8.2,8.2,0,0,1-6.1,1.5A7.6,7.6,0,0,1,73,566a11.4,11.4,0,0,1-2.5-2.4,9.7,9.7,0,0,1-1.4-2.9,8.6,8.6,0,0,1-.1-3.2,8.9,8.9,0,0,1,3.3-5.4,8.1,8.1,0,0,1,3-1.3,6.9,6.9,0,0,1,3.2-.1,6.4,6.4,0,0,1,3,1.1,7.3,7.3,0,0,1,2.4,2.2l4.5-3.3a13.7,13.7,0,0,0-5.6-4.5,12.8,12.8,0,0,0-7-1.1,13.7,13.7,0,0,0-6.7,2.5,14.1,14.1,0,0,0-4.5,5.5A14.4,14.4,0,0,0,63.4,560.2Z" fill="url(#jer-h)"/><circle cx="100.5" cy="570.1" r="3.8" fill="#8d2f88"/><circle cx="77.5" cy="558.8" r="3.8" fill="#00a99d"/><path d="M129.6,585a13.8,13.8,0,0,0,3.7,6.1,14.1,14.1,0,0,0,6.3,3.5,14.2,14.2,0,0,0,7.1,0,13,13,0,0,0,5.3-2.5h0l.9-.8,7.3-7.3,1.6-1.5a8,8,0,0,1,5.7-2.6,7.8,7.8,0,0,1,3.3.7,9.7,9.7,0,0,1,2.9,1.9,8,8,0,0,1,1.8,2.7,6.7,6.7,0,0,1,.7,3.1,8.2,8.2,0,0,1-2.3,5.9,6.8,6.8,0,0,1-2.6,1.8,7.1,7.1,0,0,1-3.2.7,8.7,8.7,0,0,1-3.2-.6,7.7,7.7,0,0,1-2.7-1.7l-3.8,4a13.3,13.3,0,0,0,13.3,3.3,13.2,13.2,0,0,0,6.2-3.7,13.7,13.7,0,0,0,3.5-6.2,14.1,14.1,0,0,0-10.1-16.8,14.6,14.6,0,0,0-7.2,0,12.7,12.7,0,0,0-6.1,3.4l-8.9,8.9a8.3,8.3,0,0,1-5.8,2.5,7.7,7.7,0,0,1-3.2-.7,8.6,8.6,0,0,1-2.9-1.9,9.7,9.7,0,0,1-1.9-2.6,11.4,11.4,0,0,1-.7-3.2,8.9,8.9,0,0,1,2.3-5.9,8,8,0,0,1,2.7-1.8,8.8,8.8,0,0,1,3.2-.7,8.1,8.1,0,0,1,3.1.6,8.8,8.8,0,0,1,2.8,1.7l3.8-3.9a12.4,12.4,0,0,0-6.3-3.5,13.2,13.2,0,0,0-7.1.1,13.8,13.8,0,0,0-6.1,3.7,13.3,13.3,0,0,0-3.5,6.2A13.5,13.5,0,0,0,129.6,585Z" fill="url(#jer-i)"/><circle cx="167.9" cy="588.2" r="3.8" fill="#8d2f88"/><circle cx="143.2" cy="581.1" r="3.8" fill="#00a99d"/><path d="M148.5,621.9a13.9,13.9,0,0,0,6,12.5,14.8,14.8,0,0,0,6.7,2.5,14,14,0,0,0,5.8-.6h.1l1.1-.5,9.3-4.3,2.1-.9a8.1,8.1,0,0,1,6.3-.4,6.7,6.7,0,0,1,2.8,1.8,8,8,0,0,1,2,2.8,6.5,6.5,0,0,1,.8,3.1,7.2,7.2,0,0,1-.4,3.2,8.1,8.1,0,0,1-4.2,4.7,8.4,8.4,0,0,1-3.1.8,8.6,8.6,0,0,1-3.2-.5,7.1,7.1,0,0,1-2.8-1.6,7,7,0,0,1-1.9-2.6l-5,2.4a13.8,13.8,0,0,0,4.6,5.5,14.9,14.9,0,0,0,6.8,2.3,14.1,14.1,0,0,0,7-1.3,13,13,0,0,0,5.4-4.7,13.5,13.5,0,0,0,1-13.8,13.3,13.3,0,0,0-4.6-5.4,14.4,14.4,0,0,0-13.7-1.5L166,630.7a8.1,8.1,0,0,1-6.3.4,9.5,9.5,0,0,1-2.8-1.8,7.6,7.6,0,0,1-2-2.8,8.5,8.5,0,0,1-.9-3.1,8.9,8.9,0,0,1,.5-3.2,7.8,7.8,0,0,1,4.2-4.7,6.8,6.8,0,0,1,3.1-.8,8.5,8.5,0,0,1,3.2.4,8.1,8.1,0,0,1,2.8,1.7,9.2,9.2,0,0,1,1.9,2.5l5-2.4a14.4,14.4,0,0,0-4.7-5.4,13.9,13.9,0,0,0-19.2,3.7A14.5,14.5,0,0,0,148.5,621.9Z" fill="url(#jer-j)"/><circle cx="183.3" cy="638.1" r="3.8" fill="#8d2f88"/><circle cx="162.6" cy="623" r="3.8" fill="#00a99d"/><path d="M128.6,646.2a13.5,13.5,0,0,0,4.3-5.7,14.4,14.4,0,0,0,.9-7.1,13.6,13.6,0,0,0-2.7-6.7,13.3,13.3,0,0,0-4.3-3.9h-.1l-1.1-.5-9.4-4.1-2.1-.8a8.1,8.1,0,0,1-4.5-4.4,8.8,8.8,0,0,1-.6-3.3,9.4,9.4,0,0,1,.7-3.4,9.5,9.5,0,0,1,1.7-2.7,8,8,0,0,1,2.7-1.8,8.1,8.1,0,0,1,6.3-.1,8,8,0,0,1,2.7,1.8,6.8,6.8,0,0,1,1.8,2.6,7.4,7.4,0,0,1,.7,3.2,8.7,8.7,0,0,1-.6,3.2l5.1,2a12.4,12.4,0,0,0,.9-7.1,14,14,0,0,0-2.8-6.5,12.8,12.8,0,0,0-5.7-4.3,13.7,13.7,0,0,0-13.7,1.9,13.5,13.5,0,0,0-4.3,5.7,14.4,14.4,0,0,0-.9,7.1,13.6,13.6,0,0,0,2.7,6.7,12.4,12.4,0,0,0,5.5,4.4l11.5,4.9a7.8,7.8,0,0,1,4.5,4.4,7.2,7.2,0,0,1,.6,3.3,9.8,9.8,0,0,1-.7,3.4,9.5,9.5,0,0,1-1.7,2.7,8,8,0,0,1-2.7,1.8,8.1,8.1,0,0,1-6.3.1,8,8,0,0,1-2.7-1.8,7.1,7.1,0,0,1-1.8-2.7,8.2,8.2,0,0,1-.7-3.1,8.7,8.7,0,0,1,.6-3.2l-5.1-2.1a14.7,14.7,0,0,0-.9,7.1,14,14,0,0,0,2.8,6.6,13.5,13.5,0,0,0,5.7,4.3,14.6,14.6,0,0,0,7.1.9A14,14,0,0,0,128.6,646.2Z" fill="url(#jer-k)"/><circle cx="117.2" cy="609.5" r="3.8" fill="#8d2f88"/><circle cx="119.9" cy="635" r="3.8" fill="#00a99d"/><path d="M74.9,587.9a12.9,12.9,0,0,0-6.1,3.7,13.2,13.2,0,0,0-3.5,6.2,14.6,14.6,0,0,0,0,7.2,12.6,12.6,0,0,0,2.5,5.2h.1l.8.9,7.2,7.3,1.6,1.6a7.6,7.6,0,0,1,1.8,9.1,7.7,7.7,0,0,1-1.9,2.8,7.9,7.9,0,0,1-5.7,2.6,8.5,8.5,0,0,1-5.9-2.3,10.1,10.1,0,0,1-1.9-2.7,8.7,8.7,0,0,1-.6-3.2,6.5,6.5,0,0,1,.5-3.1,7.5,7.5,0,0,1,1.8-2.8l-4-3.8a14.1,14.1,0,0,0-3.5,6.3,14.2,14.2,0,0,0,.1,7.1,13.8,13.8,0,0,0,3.7,6.1,13.7,13.7,0,0,0,19.5-.3,13.3,13.3,0,0,0,3.5-6.2,13.5,13.5,0,0,0,.1-7.2,13.1,13.1,0,0,0-3.4-6.2l-8.9-8.9a7.9,7.9,0,0,1-2.5-5.7,7.8,7.8,0,0,1,.7-3.3,9.7,9.7,0,0,1,1.9-2.9,7.6,7.6,0,0,1,2.6-1.8,7.1,7.1,0,0,1,3.2-.7,8.4,8.4,0,0,1,5.9,2.3,7.6,7.6,0,0,1,1.8,2.6A9.2,9.2,0,0,1,87,601a8.7,8.7,0,0,1-.6,3.2,9.5,9.5,0,0,1-1.7,2.7l3.9,3.8a12.5,12.5,0,0,0,3.5-6.2,13.2,13.2,0,0,0-.1-7.1,14.1,14.1,0,0,0-3.7-6.2,14.3,14.3,0,0,0-6.2-3.5A14.6,14.6,0,0,0,74.9,587.9Z" fill="url(#jer-l)"/><circle cx="71.7" cy="626.1" r="3.8" fill="#8d2f88"/><circle cx="78.8" cy="601.5" r="3.8" fill="#00a99d"/><path d="M179,513a12.8,12.8,0,0,0-6.9,1.9,12.3,12.3,0,0,0-5.1,5,14,14,0,0,0-1.1,12.6h0l.5,1.1,5,9.1,1.1,1.9a8.5,8.5,0,0,1,.8,6.3,7.6,7.6,0,0,1-1.6,2.9,10.5,10.5,0,0,1-2.6,2.2,8.9,8.9,0,0,1-3.1,1.1,8.7,8.7,0,0,1-3.2-.2,8.3,8.3,0,0,1-5-3.9,8.7,8.7,0,0,1-1-3.1,7,7,0,0,1,.2-3.2,8,8,0,0,1,1.5-2.9,6.1,6.1,0,0,1,2.4-2.1l-2.7-4.8a14.7,14.7,0,0,0-5.2,5,14.1,14.1,0,0,0,0,13.8,12.9,12.9,0,0,0,5,5.1,13.1,13.1,0,0,0,6.9,1.9,13.9,13.9,0,0,0,6.9-1.8,12.9,12.9,0,0,0,5.1-5A14.6,14.6,0,0,0,179,549a12.6,12.6,0,0,0-1.6-6.9l-6-11a8.5,8.5,0,0,1-.8-6.3,7.6,7.6,0,0,1,1.6-2.9,9,9,0,0,1,2.6-2.2,8.7,8.7,0,0,1,6.3-.8,8.4,8.4,0,0,1,5,3.8,8.7,8.7,0,0,1,1,3.1,8.5,8.5,0,0,1-.2,3.2,7.3,7.3,0,0,1-1.5,2.9A6.9,6.9,0,0,1,183,534l2.7,4.8a13.7,13.7,0,0,0,7-11.9,14.2,14.2,0,0,0-1.8-6.9,13.6,13.6,0,0,0-5-5.1A15.5,15.5,0,0,0,179,513Z" fill="url(#jer-m)"/><circle cx="165.2" cy="548.8" r="3.8" fill="#8d2f88"/><circle cx="178.9" cy="527.2" r="3.8" fill="#00a99d"/></svg>