<svg xmlns="http://www.w3.org/2000/svg" viewBox="0 0 512 284"><path d="M315.5,109.9c19.3-5.6,27.9-34.4,19.2-64.4S303.4-4.2,284.2,1.3,256.3,35.7,265,65.7,296.3,115.4,315.5,109.9Z"/><path d="M257.1,169.5c16.7-9.1,18.8-37.6,4.7-63.7S222.6,66,205.8,75s-18.8,37.7-4.7,63.7S240.3,178.6,257.1,169.5Z"/><path d="M351.9,115.9c-67.7,0-142.7,143.5-86.6,163.4,45.7,16.3,46.3-19,84.1-17.2l2.5.2,2.4-.2c37.8-1.8,38.4,33.5,84.1,17.2C494.5,259.4,419.5,115.9,351.9,115.9Z"/><path d="M388.2,109.9c19.3,5.5,41.9-14.3,50.6-44.2s0-58.8-19.3-64.4S377.7,15.6,369,45.5,369,104.3,388.2,109.9Z"/><path d="M497.9,75c-16.8-9-41.8,4.7-56,30.8s-12,54.6,4.8,63.7,41.8-4.7,55.9-30.8S514.7,84.1,497.9,75Z"/><path d="M61.9,194.5c9.6-2.7,13.9-17.1,9.6-32.1s-15.6-24.9-25.3-22.1-13.9,17.1-9.6,32.1S52.3,197.3,61.9,194.5Z"/><path d="M32.7,224.4c8.3-4.6,9.4-18.8,2.3-31.9S15.4,172.6,7,177.1-2.4,195.9,4.7,209,24.3,228.9,32.7,224.4Z"/><path d="M80.1,197.5c-33.9,0-71.4,71.8-43.3,81.8,22.9,8.1,23.1-9.5,42.1-8.7h2.4c18.9-.8,19.2,16.8,42,8.7C151.4,269.3,113.9,197.5,80.1,197.5Z"/><path d="M98.2,194.5c9.7,2.8,21-7.1,25.3-22.1s0-29.4-9.6-32.1S93,147.4,88.6,162.4,88.6,191.8,98.2,194.5Z"/><path d="M153.1,177.1c-8.4-4.5-20.9,2.4-28,15.4s-6,27.3,2.4,31.9,20.9-2.4,28-15.4S161.5,181.7,153.1,177.1Z"/></svg>