<svg xmlns="http://www.w3.org/2000/svg" viewBox="0 0 373 512"><path d="M19.6,512c-6.2-4.4-6.7-7.2-2.6-13.8q17.3-27.7,34.4-55.6a12.6,12.6,0,0,0,2.2-6.4c.1-34.6,0-69.3-.1-104a19.4,19.4,0,0,0-.2-2.4c-5.1-.6-10-.7-14.9-1.6C21.8,324.9,10,315.1,1.8,300.6c-3.2-5.6-1.7-9.9,4.3-12.4,7.7-3.2,15.4-6.3,23.2-9.3a8.7,8.7,0,0,0,5.6-5.6,22.9,22.9,0,0,1,13.3-14.1c3-1.2,4-2.9,4.2-5.9s.2-8.8,1.2-12.9c.7-2.5,2.8-5.8,4.9-6.6s5.7.7,8,2.1,3.9,4,6.5,6.8c1.3-4.7,2.5-8.7,3.6-12.7s3-7.3,7.6-7.5,6.6,3,8,6.9c2.2,6.2,4.5,12.4,6.7,18.4,16.3-7.3,32.4-14.4,48.4-21.8a15.6,15.6,0,0,0,5.9-4.9c18.7-28.4,37.1-56.9,55.8-85.3,5.4-8.2,13-12.8,22.9-12.8,18.9-.2,37.7-.2,56.5,0a25.8,25.8,0,0,1,21.5,10.9q30.5,41.4,60.6,83.1a13.9,13.9,0,0,1,2.3,8.4c-1.5,26.1-3.4,52.1-5.3,78.2-.9,12.4-10.8,21.7-22.3,21.1s-21.2-10.2-20.6-23c1.1-21.6,2.9-43.2,4.2-64.8a12.5,12.5,0,0,0-1.9-6.8,79,79,0,0,0-11.1-13.8v5.3c0,86.4-.3,172.9.2,259.4,0,14.8-3.9,25.6-18.4,31h-10c-14.4-5.1-18.9-15.6-18.8-30.3.5-47.3.2-94.7.2-142v-6.4H251.4v6.1c0,47.5-.2,95,.2,142.5.1,14.7-4.5,25.2-19,30.1h-9c-10.1-3.4-17.1-9.7-19-21.2-2.3,2.5-4.1,4.5-5.9,6.3-8.1,8.1-18.1,12.4-29.1,14.9h-94c-4.1-2.9-5.3-6.6-4.4-11.7a27,27,0,0,1,13.2-19.6c3.8-2.2,8-3.8,11.6-5.6-1.8-8.5-3.6-16.9-5.5-25.4l-2.9,4.2C76.5,471,65.3,488.2,54,505.3c-1.7,2.5-4.2,4.5-6.4,6.7ZM204.4,394.1V222.2c-1.5,2-2.5,3.3-3.3,4.6-6,9.1-11.7,18.3-17.9,27.1a22.5,22.5,0,0,1-8.1,6.9c-10.6,5.1-21.5,9.8-32.3,14.5s-19.4,8.2-29.5,12.4c5.8,16,11.9,32.8,18.2,49.7.4,1.2,2.2,2.1,3.6,2.7,6.8,2.8,13.8,5,20.3,8.2C175.8,358.4,191.7,373.5,204.4,394.1Z"/><path d="M263.3,0c30.3.1,55.3,25.2,55.1,55.5s-25.3,55.3-55.5,55.1-55.3-25.2-55.2-55.5A55.6,55.6,0,0,1,263.3,0Z"/></svg>